<svg xmlns="http://www.w3.org/2000/svg" viewBox="0 0 919 958"><defs><style>.cls-1{fill:#2c455d;}.cls-2{fill:#342d4b;}.cls-3{fill:#cca580;}.cls-4{fill:#d5e1f7;}.cls-5{fill:#2d4151;}.cls-6{fill:#8b6e46;}.cls-7{fill:#c18784;}.cls-8{fill:#cc918b;}.cls-9{fill:#483e7c;}.cls-10{fill:#645596;}.cls-11{fill:#c7e5e5;}.cls-12{fill:#2e3b48;}.cls-13{fill:#eaeaea;}.cls-14{fill:#c18481;}.cls-15{fill:#35334f;}.cls-16{fill:#3f3b50;}.cls-17{fill:#f8f7f5;}.cls-18{fill:#232032;}.cls-19{fill:none;stroke:#232032;stroke-miterlimit:10;stroke-width:6px;}</style></defs><title>design</title><g id="Layer_2" data-name="Layer 2"><g id="Layer_1-2" data-name="Layer 1"><path class="cls-1" d="M343.73,660.78V670h-237V660a193.78,193.78,0,0,1,237,.78Z"/><path class="cls-2" d="M12.73,250s44,100,28,148c-1,0,15,19,25-9s17-118-4-136S12.73,213,12.73,250Z"/><rect class="cls-3" x="525.73" y="446" width="346" height="512"/><path class="cls-4" d="M730.29,347s-17.56,67-3.56,73,68-1,68-1,14-46-15-68S730.29,347,730.29,347Z"/><path class="cls-4" d="M901.83,304c-3.3,14.09-6.77,25.7-10.1,33-16,35-221,28-272,15-15.65-4-27.25-23.23-35.81-48Z"/><path class="cls-5" d="M901.83,304H583.92c-19.35-55.92-23.19-140-23.19-140-2-30,9-46,18-55s253-10,283-10,43,5,54,37C924.44,161.33,914.35,250.54,901.83,304Z"/><circle class="cls-5" cx="741.73" cy="330" r="17"/><rect class="cls-6" x="583.73" y="451" width="6" height="503"/><rect class="cls-6" x="659.4" y="451" width="6" height="503"/><rect class="cls-6" x="735.06" y="451" width="6" height="503"/><rect class="cls-6" x="810.73" y="451" width="6" height="503"/><rect class="cls-6" x="525.73" y="932" width="346" height="26"/><path class="cls-7" d="M460.73,309s42-22,172,30,116,49,126,47,49-3,59-33c0,0,6-6,6,4s-26,35-44,48-6,16-6,16l-84-22-256,24-95,66-33.4-52.5,80.4-82.5Z"/><path class="cls-8" d="M341.73,447.72s135-82.72,172-78.72,180,1,192-5,40-24,43-48c0,0,5-5,5,2,0,1,3-1,3,5,0,0,3,0,3,6,0,0,2-1,2,4,0,0,3,0,2,5s-20,32-20,49-85,22-97,30-141,10-141,10-102,139-149,157S341.73,447.72,341.73,447.72Z"/><path class="cls-9" d="M237.73,503s81.78-62.82,81.39-69.91c-.39-.09,21.61,4.91,24.61,19.91S248.73,508,237.73,503Z"/><path class="cls-10" d="M235.73,505s106-56,106-59,55,42,31,168c0-5-2-1-11,3s-110,63-194,10S235.73,505,235.73,505Z"/><path class="cls-11" d="M329.73,352s-58-35-58-37,1-9,10-4,60,38,60,38Z"/><path class="cls-12" d="M374.73,344l19-18,70-22s13-1,4,6-216,185-216,185-17,17-21-4,87-94,87-94l26-30Z"/><polygon class="cls-13" points="374.73 348 401.73 328 446.73 314 244.73 489 240.73 478 374.73 348"/><path class="cls-14" d="M188.73,269l-16,6s14,10,23,43,45,74,55,75,96-32,117-58c12.14-15,16.59-22.71,18.19-26.51a5.85,5.85,0,0,1,5.34-3.56c11.29-.13,39.87-.14,41.47,3.07,2,4,2,8-3,8s-20,6-27,8-29,22-29,22l-91,83s-44,35-104-51l-13-5-5-7-11-53-29-56,2-10,28-13,25-13Z"/><path class="cls-15" d="M102.73,245s15.62,2.67,17,3c8.57,2,42.64,75.09,42,116,0,3,7,4,9-7s2-63-3-79c-2-4,4-4,4,2s16,50,7,130,57,61,57,61,8,32.55,2,47c-15,36-17,40-27,61-6.08,12.77-31,47-35,51s-93,14-105-186V352s12,72,78,37C147.73,388,50.73,250,102.73,245Z"/><path class="cls-8" d="M95.73,247s50,21,61,121c3,3,35,71,41,70s24-23,101-30c4,0,13-16,13-25s7-50,41-40a122.64,122.64,0,0,1,28,10s-122,132-184,158c-9,7-68-57-89-101,0,0-39-22-39-64S67.73,249,95.73,247Z"/><path class="cls-8" d="M262.73,239a39.84,39.84,0,0,0,7.85,23.8,40.05,40.05,0,0,1-27.26,3.08,47,47,0,1,1-10.27-73.71,40,40,0,0,1,51.83,11A40,40,0,0,0,262.73,239Z"/><path class="cls-16" d="M373.35,205.39c6.9,17.48-20.65,33.74-21.62,38.61s9,7,11,9-2,2-2,2c-1-8-6-1-12-9-4.4-5.87,4.65-16.57,9.78-21.87-14.11,9.47-34.82,11.05-54.49,3.13h0c-11.72,4.26-1.28,19.74,1.72,22.74s-5,5-11,6-8,14-10,9,7-11,7-15-17-14-17-14c-19,12-45,4-43,4,13.81-1.53,20-8.56,22.81-15.06-19.33,8.49-40.2,6.62-53.73-3.85l-28.4,7.18a64.17,64.17,0,0,1-18.29,14.46c-26.32,14-56.94,8-68.37-13.5a38.16,38.16,0,0,1-3.68-24.77A27.61,27.61,0,0,1,70.5,193.13c-7.12-13.36-1.62-31,12.32-45-15.7-11-26.09-30.25-26.09-52.1,0-34.24,25.52-62,57-62a53.58,53.58,0,0,1,8.64.7C129.78,14.15,145.29,0,163.23,0c22.12,0,40.55,21.5,44.65,50h23.44c7.44-22.86,25.64-39,46.91-39,27.89,0,50.5,27.76,50.5,62,0,.42,0,.84,0,1.26,7.6-2.32,14.66-1.91,20.05,1.78,13.42,9.18,11.67,35.29-3.62,59.24,14.61-.1,27,5.44,32.68,16.07,5.17,9.72,3.68,21.72-2.89,32.93A40.1,40.1,0,0,1,373.35,205.39Z"/><path class="cls-17" d="M232.73,200.5a43.5,43.5,0,0,1-40.18,43.37c-1.1.09-2.2.13-3.32.13a43.5,43.5,0,0,1-22-81,43.43,43.43,0,0,1,22-6,43.49,43.49,0,0,1,43.5,43.5Z"/><path class="cls-17" d="M204.73,132.5q0,14.2,1.31,27.87a43.62,43.62,0,0,0-27.3-2.09c0-.26,0-.52,0-.78,0-40.55,8.44-78,22.75-108.5h15.6A280.34,280.34,0,0,0,204.73,132.5Z"/><path class="cls-1" d="M513.23,416h372a17.5,17.5,0,0,1,17.5,17.5V451a0,0,0,0,1,0,0h-407a0,0,0,0,1,0,0V433.5a17.5,17.5,0,0,1,17.5-17.5Z"/><rect class="cls-18" x="108.73" y="668" width="234" height="8"/><path class="cls-18" d="M233.73,671V892.24c-2.31-.16-4.65-.24-7-.24-2,0-4,.06-6,.18V671Z"/><path class="cls-18" d="M319.92,954H133.54a101,101,0,0,1,87.19-61.82c2-.12,4-.18,6-.18,2.35,0,4.69.08,7,.24A101,101,0,0,1,319.92,954Z"/><path class="cls-19" d="M109.73,672s-117,5-106-99c0,0,20-70,40-175"/></g></g></svg>