<svg id="Layer_1" data-name="Layer 1" xmlns="http://www.w3.org/2000/svg" viewBox="0 0 389 397"><defs><style>.cls-1{fill:#e0e0e0;}.cls-2{fill:#ebebeb;}.cls-3{fill:#f5f5f5;}.cls-4{fill:#ff725e;}.cls-5{opacity:0.8;}.cls-15,.cls-6{fill:#fff;}.cls-7{fill:#ffbe9d;}.cls-8{fill:#263238;}.cls-9{fill:#fafafa;}.cls-10{fill:#455a64;}.cls-11,.cls-12{opacity:0.4;}.cls-12,.cls-15{isolation:isolate;}.cls-13{fill:#c78976;}.cls-14,.cls-15{opacity:0.6;}.cls-16{fill:#b57466;}.cls-17{fill:#eb996e;}.cls-18{opacity:0.2;}.cls-19{opacity:0.3;}</style></defs><g id="freepik--background-complete--inject-59"><path class="cls-1" d="M254.21,66.67h53.43s-4.72-8.6-18.48-7.31c-13.13,1.19-13.81-4.24-20.48-4.88S256.44,58.88,254.21,66.67Z"/><path class="cls-2" d="M114.55,207.92S109.2,210.81,117,222a156.84,156.84,0,0,0,12.86,16.54s1.48,2.64-.81,3.4-7.58.65-8.23,3.66,1.89,5.69,6.61,7.52,15,6.32,15.88,6.73,1.92,1.58.44,2.35-12.94,3.58-11.28,8.94,15.7,8.38,17.22,8.74,2,.93,1.95,1.74-3.95,1.4-7.18,2.33-6.81,2.59-5.59,5.61,10,8.48,29.53,7.71l9-.94,3.84-8.25c7.13-18.15,4.87-28.28,2.44-30.43s-5.19.7-7.13,3.45-3.79,6.27-4.57,6-1.16-.85-1-2.44,1.93-15.81-2.59-19.14-10.95,6.57-12.19,7.71-2-.2-2.07-1.19-.93-12.12-1.14-17.21-1.74-8.32-4.91-8.71-4.7,4.65-6.17,6.57-3.48-.35-3.48-.35A160.87,160.87,0,0,0,127,214.76c-8-11-12.59-6.76-12.59-6.76"/><path class="cls-1" d="M178.15,298.38c-5.84-8.12-16-22.75-24.75-35.26s-16.7-23.82-22.51-32L124,221.5l-1.87-2.63-.48-.69c-.1-.15-.15-.24-.15-.24l.18.23.5.66,1.91,2.61c1.62,2.25,4.06,5.53,7,9.59,5.84,8.13,13.81,19.42,22.57,31.93s18.88,27.15,24.68,35.3"/><path class="cls-1" d="M128.21,246.06a3.76,3.76,0,0,1,.65.09c.41.07,1,.19,1.74.35,1.47.32,3.49.82,5.69,1.4l5.69,1.52,1.72.46a2.68,2.68,0,0,1,.63.18,2.82,2.82,0,0,1-.65-.08c-.42-.07-1-.19-1.75-.36-1.46-.34-3.48-.82-5.69-1.44l-5.69-1.48-1.72-.45A2.13,2.13,0,0,1,128.21,246.06Z"/><path class="cls-1" d="M144.86,249.45c-.08,0,.76-4.23,1.86-9.4s2.08-9.35,2.15-9.33-.76,4.21-1.87,9.39S144.94,249.45,144.86,249.45Z"/><path class="cls-1" d="M157.46,269.22a2.53,2.53,0,0,1,.28-.6l.87-1.63c.72-1.35,1.72-3.25,2.73-5.33s1.9-4.06,2.51-5.44l.73-1.66a2.11,2.11,0,0,1,.3-.6,3.65,3.65,0,0,1-.2.64c-.14.4-.36,1-.65,1.7-.57,1.43-1.4,3.38-2.43,5.49s-2.06,4-2.82,5.3c-.39.66-.72,1.19-.95,1.55A3.56,3.56,0,0,1,157.46,269.22Z"/><path class="cls-1" d="M141.73,269.51a2.08,2.08,0,0,1,.61-.07l1.68-.1c1.41-.07,3.37-.15,5.53-.22s4.12-.11,5.54-.13h1.69a3.11,3.11,0,0,1,.61,0,2.49,2.49,0,0,1-.61.08l-1.68.1c-1.42.06-3.38.14-5.54.21s-4.12.11-5.54.13h-1.68A3.11,3.11,0,0,1,141.73,269.51Z"/><path class="cls-1" d="M150.63,288.45a3.59,3.59,0,0,1,.81-.09l2.15-.13c1.81-.09,4.32-.22,7.1-.33s5.28-.2,7.09-.24l2.15-.05a5.61,5.61,0,0,1,.82,0,5.56,5.56,0,0,1-.82.09l-2.15.13c-1.81.09-4.32.22-7.09.33s-5.29.19-7.1.24l-2.15.05A5.48,5.48,0,0,1,150.63,288.45Z"/><path class="cls-1" d="M170.21,287.48a4.86,4.86,0,0,1,.34-.77l1-2.08c.87-1.74,2-4.16,3.26-6.86s2.27-5.18,3-7l.88-2.13a6.71,6.71,0,0,1,.35-.77,4.07,4.07,0,0,1-.25.82c-.18.52-.45,1.26-.81,2.16-.7,1.82-1.72,4.31-3,7s-2.44,5.12-3.34,6.84c-.46.86-.81,1.56-1.11,2A5.13,5.13,0,0,1,170.21,287.48Z"/><path class="cls-3" d="M245.78,167.55C236.11,156.7,237,141,240.7,127.64c.61-2.24.92-4.68,2.43-6.4s4.38-2.49,6.17-1.06c1.49,1.19,1.76,3.31,2.31,5.15a13.53,13.53,0,0,0,4.06,6.3c1.26,1.09,2.93,2,4.54,1.52,2.2-.62,3.06-3.25,3.58-5.5q1.44-6.29,2.89-12.56a21.93,21.93,0,0,1,2.26-6.5,7.19,7.19,0,0,1,5.49-3.67c2.24-.09,4.62,1.76,4.55,4.06a21.09,21.09,0,0,1-.59,2.82,2.43,2.43,0,0,0,.85,2.54,2.76,2.76,0,0,0,2.71-.45,30.35,30.35,0,0,0,7.27-6.82,41.77,41.77,0,0,1,7-7.15c2.69-2,6.06-3.26,9.31-2.67s6.21,3.38,6.28,6.72-2.54,6.14-5.15,8.22a51.61,51.61,0,0,1-12.75,7.46,4.26,4.26,0,0,0-2.18,1.47c-.82,1.38.22,3.2,1.57,4.06,1.55.95,3.4,1.21,5.11,1.83s3.41,1.84,3.68,3.65c.37,2.51-2.11,4.46-4.37,5.59a44.17,44.17,0,0,1-14.42,4.3,15.38,15.38,0,0,0-5.27,1.17c-1.6.84-2.88,2.68-2.43,4.45s2.37,2.77,4.17,2.85a32.63,32.63,0,0,0,5.37-.7c3.36-.44,7.32.71,8.63,3.85a7.27,7.27,0,0,1-.73,6.5,16.74,16.74,0,0,1-4.71,4.74A44.38,44.38,0,0,1,266.81,172c-7.73.81-14.53-.12-21-4.4"/><path class="cls-1" d="M247.74,168.85c1.76-5.23-.08-2.61,3.54-8.94a206.12,206.12,0,0,1,13.1-19.76l3.7-5c1.22-1.62,2.44-3.25,3.71-4.79a102.43,102.43,0,0,1,7.86-8.28c2.62-2.52,5.2-4.82,7.64-6.94s4.75-4.07,6.93-5.73a82.92,82.92,0,0,1,10.86-7.13c1.34-.74,2.44-1.28,3.13-1.63l.81-.39.29-.13a2,2,0,0,1-.27.17l-.81.44c-.72.38-1.77.94-3.09,1.69a85.55,85.55,0,0,0-10.74,7.24c-2.17,1.69-4.46,3.63-6.88,5.76s-5,4.44-7.61,6.95a109.18,109.18,0,0,0-7.81,8.28c-1.26,1.51-2.43,3.13-3.68,4.77l-3.69,5a212.07,212.07,0,0,0-13.1,19.68c-3.63,6.31-1.81,3.65-3.6,8.85"/><path class="cls-1" d="M271.94,130.38a5.68,5.68,0,0,1,0-1c0-.65.11-1.62.21-2.74.21-2.31.62-5.49,1.08-9s.81-6.68,1-9c.09-1.15.15-2.08.19-2.73a4.79,4.79,0,0,1,.11-1,5.65,5.65,0,0,1,.06,1c0,.64,0,1.62-.06,2.74-.1,2.32-.41,5.51-.87,9s-.87,6.58-1.19,8.93c-.13,1.08-.25,2-.34,2.73A4.44,4.44,0,0,1,271.94,130.38Z"/><path class="cls-1" d="M302,131.82a5.84,5.84,0,0,1-1.18-.13c-.75-.12-1.85-.28-3.21-.44-2.7-.34-6.5-.67-10.63-.87s-7.94-.19-10.68-.12c-1.36,0-2.43.08-3.25.11a5.92,5.92,0,0,1-1.19,0,8,8,0,0,1,1.19-.18c.76-.08,1.86-.18,3.25-.24,2.73-.15,6.5-.2,10.71,0a105.65,105.65,0,0,1,10.65,1c1.35.2,2.44.41,3.19.57A5.73,5.73,0,0,1,302,131.82Z"/><path class="cls-1" d="M251.76,159.46a1.42,1.42,0,0,1-.12-.4c-.06-.32-.14-.7-.25-1.16-.2-1-.47-2.44-.77-4.29-.61-3.64-1.29-8.68-2-14.27s-1.31-10.63-1.84-14.27c-.26-1.77-.48-3.25-.64-4.3-.07-.47-.12-.86-.17-1.18a1.48,1.48,0,0,1,0-.42,1.42,1.42,0,0,1,.12.4l.24,1.16c.21,1,.47,2.44.77,4.3.61,3.63,1.3,8.67,2,14.26s1.32,10.63,1.84,14.27c.27,1.77.48,3.25.65,4.31.07.46.12.85.17,1.17A2.94,2.94,0,0,1,251.76,159.46Z"/><path class="cls-1" d="M293,156.18a1.41,1.41,0,0,1-.41.07l-1.2.11-4.42.36c-3.73.3-8.89.81-14.57,1.31s-10.86,1-14.63,1.2c-1.87.11-3.38.19-4.43.22h-1.2a1.55,1.55,0,0,1-.43,0,2,2,0,0,1,.42-.07l1.2-.11,4.42-.36c3.73-.3,8.88-.81,14.57-1.31s10.85-1,14.63-1.19c1.88-.11,3.39-.2,4.44-.23h1.2A1.41,1.41,0,0,1,293,156.18Z"/><path class="cls-1" d="M325,238.88a1.32,1.32,0,0,1-.13.38l-.44,1.08-1.73,4.07-6.27,14.49,0,.08h-.09l-19.68,3.25-6.6,1.08-.3.05.07-.29c1.63-6.33,3.08-12.19,4.34-17.11l.09.19L282.67,241l-3.19-1.46-.82-.39a1.43,1.43,0,0,1-.27-.15l.29.11.85.34,3.25,1.38,11.62,5,.13.05V246c-1.23,5-2.69,10.79-4.26,17.13l-.23-.24,6.6-1.09,19.69-3.2-.14.1,6.4-14.42c.77-1.72,1.38-3.09,1.82-4.06l.49-1.07C324.93,239.08,325,239,325,238.88Z"/><polygon class="cls-1" points="292.34 261.03 291.8 262.44 292.66 263.69 291.14 263.62 290.23 264.82 289.83 263.36 288.4 262.86 289.67 262.03 289.71 260.51 290.88 261.46 292.34 261.03"/><polygon class="cls-1" points="278.82 238.07 278.56 238.78 278.98 239.39 278.23 239.35 277.78 239.96 277.57 239.23 276.87 238.98 277.49 238.56 277.52 237.81 278.1 238.28 278.82 238.07"/><polygon class="cls-1" points="316.99 258.03 316.73 258.74 317.15 259.35 316.4 259.32 315.95 259.92 315.74 259.19 315.04 258.95 315.66 258.53 315.68 257.78 316.27 258.25 316.99 258.03"/><polygon class="cls-1" points="294.96 245.36 294.7 246.06 295.13 246.68 294.37 246.64 293.92 247.24 293.72 246.51 293.01 246.27 293.64 245.85 293.66 245.1 294.24 245.57 294.96 245.36"/><polygon class="cls-1" points="325.93 238.18 325.67 238.88 326.1 239.5 325.34 239.47 324.88 240.07 324.69 239.34 323.98 239.09 324.61 238.68 324.63 237.92 325.21 238.4 325.93 238.18"/><path class="cls-1" d="M79.63,297.32h42.55s-3.77-6.85-14.72-5.85c-10.46.95-11-3.38-16.31-3.9S81.41,291.11,79.63,297.32Z"/><path class="cls-3" d="M88.08,129.82h42.54S126.86,123,115.9,124c-10.45,1-11-3.37-16.3-3.89S89.85,123.62,88.08,129.82Z"/><path class="cls-3" d="M304.14,159.41h34.94S336,153.78,327,154.6c-8.6.81-9-2.77-13.4-3.21S305.59,154.31,304.14,159.41Z"/></g><g id="freepik--Pencil--inject-59"><path class="cls-4" d="M234.34,228.39c1.74-13.09-7.47-23.9-19-30.39s-24.86-8.69-37.57-12.28c-12-3.4-23.91-8.38-32.78-17.12s-14.21-21.89-11-33.93c.81-3,2.23-6.06,4.83-7.81s6.56-1.7,8.5.76c4.13,5.23-3.91,14.62,1.13,19,1.15,1,2.74,1.38,3.94,2.33,3.17,2.54,2.15,7.47,2.6,11.52.88,8,8.39,13.56,15.76,16.81,9.88,4.34,20.57,6.38,31,8.94s21,5.81,29.75,12.18,16.31,16.26,16.26,27.06c0,3-.4,6.72-2.29,9.06a5.35,5.35,0,0,1-7,1.55c-2.73-1.28-4.64-3.25-4.13-7.62"/><g class="cls-5"><path class="cls-6" d="M234.34,228.39c1.74-13.09-7.47-23.9-19-30.39s-24.86-8.69-37.57-12.28c-12-3.4-23.91-8.38-32.78-17.12s-14.21-21.89-11-33.93c.81-3,2.23-6.06,4.83-7.81s6.56-1.7,8.5.76c4.13,5.23-3.91,14.62,1.13,19,1.15,1,2.74,1.38,3.94,2.33,3.17,2.54,2.15,7.47,2.6,11.52.88,8,8.39,13.56,15.76,16.81,9.88,4.34,20.57,6.38,31,8.94s21,5.81,29.75,12.18,16.31,16.26,16.26,27.06c0,3-.4,6.72-2.29,9.06a5.35,5.35,0,0,1-7,1.55c-2.73-1.28-4.64-3.25-4.13-7.62"/></g><path class="cls-4" d="M178.68,124.3c-.42-4.87,3.2-9.08,7.31-11.33s8.83-3.19,13.06-5.2c10.52-5,17.21-16.73,17.71-28.76S212,54.93,203.87,46.09c-3.32-3.6-7.4-7.37-7.45-12.27,0-5.12,4.87-9.15,9.86-9.08s9.53,3.39,12.49,7.56,4.6,9.11,6.2,14c-1.14-2,1.2-4.58,3.46-4.36s4.06,2.1,5.42,4A42.33,42.33,0,0,1,242,74.22a39.88,39.88,0,0,1-12.59,26c-8,7.31-18.63,10.73-28.92,14L179,120.93"/><g class="cls-5"><path class="cls-6" d="M178.68,124.3c-.42-4.87,3.2-9.08,7.31-11.33s8.83-3.19,13.06-5.2c10.52-5,17.21-16.73,17.71-28.76S212,54.93,203.87,46.09c-3.32-3.6-7.4-7.37-7.45-12.27,0-5.12,4.87-9.15,9.86-9.08s9.53,3.39,12.49,7.56,4.6,9.11,6.2,14c-1.14-2,1.2-4.58,3.46-4.36s4.06,2.1,5.42,4A42.33,42.33,0,0,1,242,74.22a39.88,39.88,0,0,1-12.59,26c-8,7.31-18.63,10.73-28.92,14L179,120.93"/></g><path class="cls-4" d="M172.7,22.33a4.61,4.61,0,1,0,.75-.23"/><g class="cls-5"><path class="cls-6" d="M172.7,22.33a4.61,4.61,0,1,0,.75-.23"/></g><path class="cls-4" d="M199.17,335.45c-2.63-5.45-.33-12.25,3.86-16.62s9.92-6.87,15.44-9.31c12.24-5.39,25.19-11.81,31.41-23.64a61.52,61.52,0,0,0,4.47-12.74c2.28-8.42,4.43-18-.16-25.4-1.33-2.14-3.31-4.06-5.78-4.47-2.82-.5-5.69,1-7.45,3.32a16.45,16.45,0,0,0-2.83,8c-.68,5.39-.11,10.88-.68,16.26S234.92,282,230.5,285c-5.42,3.78-13.15,2.94-18.41,6.93-4.25,3.25-5.86,8.81-9.18,13-2.8,3.5-6.7,5.89-10.28,8.59s-7,6-8.26,10.29a12.19,12.19,0,0,0,17,14.33"/><g class="cls-5"><path class="cls-6" d="M199.17,335.45c-2.63-5.45-.33-12.25,3.86-16.62s9.92-6.87,15.44-9.31c12.24-5.39,25.19-11.81,31.41-23.64a61.52,61.52,0,0,0,4.47-12.74c2.28-8.42,4.43-18-.16-25.4-1.33-2.14-3.31-4.06-5.78-4.47-2.82-.5-5.69,1-7.45,3.32a16.45,16.45,0,0,0-2.83,8c-.68,5.39-.11,10.88-.68,16.26S234.92,282,230.5,285c-5.42,3.78-13.15,2.94-18.41,6.93-4.25,3.25-5.86,8.81-9.18,13-2.8,3.5-6.7,5.89-10.28,8.59s-7,6-8.26,10.29a12.19,12.19,0,0,0,17,14.33"/></g><path class="cls-4" d="M117.81,60a17,17,0,0,1,.49-27.56c2.5-1.71,5.46-2.77,7.69-4.87,2-1.84,3.25-4.38,5.47-5.93a8,8,0,0,1,12.09,9.22c-1,2.85-3.58,4.94-4.65,7.77-1.15,3.05-.41,6.5-.81,9.7a13.4,13.4,0,0,1-18,10.79"/><g class="cls-5"><path class="cls-6" d="M117.81,60a17,17,0,0,1,.49-27.56c2.5-1.71,5.46-2.77,7.69-4.87,2-1.84,3.25-4.38,5.47-5.93a8,8,0,0,1,12.09,9.22c-1,2.85-3.58,4.94-4.65,7.77-1.15,3.05-.41,6.5-.81,9.7a13.4,13.4,0,0,1-18,10.79"/></g><path class="cls-4" d="M118.12,42.57h10V63.15a4.4,4.4,0,0,1-4.4,4.4h-1.19a4.4,4.4,0,0,1-4.39-4.4h0V42.57Z"/><polygon class="cls-7" points="118.12 42.57 123.11 33.41 128.11 42.57 118.12 42.57"/><path class="cls-4" d="M121.14,37s1.51,2.29,4,0l-2-3.62Z"/><path class="cls-8" d="M128.25,62.15a32,32,0,0,1-5.08.21,31.77,31.77,0,0,1-5.07-.21,31.77,31.77,0,0,1,5.07-.2A32,32,0,0,1,128.25,62.15Z"/><path class="cls-8" d="M128.11,60.62a30.7,30.7,0,0,1-5,.2,30.57,30.57,0,0,1-5-.2,31.74,31.74,0,0,1,5-.2A31.87,31.87,0,0,1,128.11,60.62Z"/><path class="cls-9" d="M121.05,42.71c.11,0,.21,4,.21,8.9s-.1,8.94-.21,8.94-.2-4-.2-8.94S120.94,42.71,121.05,42.71Z"/><path class="cls-9" d="M125.09,42.71c.12,0,.21,4,.21,8.9s-.09,8.94-.21,8.94-.2-4-.2-8.94S125,42.71,125.09,42.71Z"/></g><g id="freepik--Notebook--inject-59"><polygon class="cls-8" points="204.89 323.98 250.26 325.92 251.36 328.56 221.62 376.83 167.93 375.26 204.89 323.98"/><polygon class="cls-1" points="165.9 370.56 219.9 373.65 248.12 329.87 228.3 331.48 178.17 349.13 165.9 370.56"/><path class="cls-2" d="M158.31,367.32l49.57.81c-2-6.35,2.8-15.28,9.47-18.28,4.42-2,12.73-4.58,17-6.78,8.13-4.19,15.53-12.1,14.88-18.9l-20.38-.68-26-1c-2.18,6.45-6.83,10.66-13.9,13.21-6.32,2.27-13.52,2.27-19.69,4.87-9.94,4.16-14.71,17.65-11,26.77"/><path class="cls-8" d="M158.31,367.32a3.31,3.31,0,0,1-.12-.33l-.34-.95a11.34,11.34,0,0,1-.42-1.62,15.81,15.81,0,0,1-.34-2.26,23,23,0,0,1,.39-6.31,23.32,23.32,0,0,1,3.18-7.86,19,19,0,0,1,1.42-2c.27-.32.53-.67.82-1l.91-.93a8.48,8.48,0,0,1,1-.89c.35-.28.69-.58,1.06-.85a17.62,17.62,0,0,1,2.44-1.45c3.44-1.73,7.54-2.44,11.81-3.25,2.15-.39,4.36-.81,6.57-1.41a30.34,30.34,0,0,0,6.54-2.63,21.94,21.94,0,0,0,3.05-2A17.68,17.68,0,0,0,199,329a19.42,19.42,0,0,0,3.78-6.64l0-.14h.14l21.66.81c7.52.29,15.29.5,23.26.76l1.44.05h.18v.18a11,11,0,0,1-.65,4.58,18,18,0,0,1-.91,2.12,19.53,19.53,0,0,1-1.19,1.95,30.06,30.06,0,0,1-6.14,6.5,36,36,0,0,1-7.42,4.57c-2.61,1.18-5.26,2.14-7.86,3.1s-5.16,1.87-7.59,2.93a15.21,15.21,0,0,0-3.34,2c-.52.37-1,.85-1.44,1.26a9.15,9.15,0,0,0-1.28,1.43,18.62,18.62,0,0,0-3.47,6.51,12.06,12.06,0,0,0-.12,6.94l.07.22h-.22l-36.08-.64-10-.2-2.62-.07h2.63l10,.11,36.07.5-.16.21a12.29,12.29,0,0,1,.11-7.13,18.38,18.38,0,0,1,3.52-6.65c.38-.52.86-1,1.29-1.45a8.84,8.84,0,0,1,1.48-1.31,14.66,14.66,0,0,1,3.41-2.07c2.44-1.08,5-2,7.61-2.95s5.24-1.93,7.83-3.1a35.53,35.53,0,0,0,7.31-4.53,29.79,29.79,0,0,0,6.07-6.41c.42-.61.81-1.23,1.17-1.88a17.06,17.06,0,0,0,.89-2.06,10.68,10.68,0,0,0,.63-4.41l.2.18-1.46,0c-8-.27-15.74-.48-23.25-.82l-21.66-.81.19-.13a19.93,19.93,0,0,1-3.86,6.77,17.89,17.89,0,0,1-2.76,2.6,20.35,20.35,0,0,1-3.1,2,30.53,30.53,0,0,1-6.62,2.65c-2.23.61-4.45,1-6.6,1.4-4.27.77-8.36,1.48-11.75,3.17a18.39,18.39,0,0,0-2.38,1.41c-.37.27-.7.57-1.05.82a8.2,8.2,0,0,0-1,.88l-.94.93c-.29.31-.54.65-.81,1a16.83,16.83,0,0,0-1.42,2,23.1,23.1,0,0,0-3.64,14.05,15.77,15.77,0,0,0,.3,2.25,12.74,12.74,0,0,0,.39,1.62c.14.42.24.74.31,1A1.76,1.76,0,0,0,158.31,367.32Z"/><path class="cls-8" d="M216.84,323.29s.06-.32.11-.89a5,5,0,0,0-.39-2.34,4.8,4.8,0,0,0-2.34-2.52,5.36,5.36,0,0,0-7.12,2.6l-.08.17a6,6,0,0,0-.48,3.45,6.11,6.11,0,0,0,.81,2.23c.31.48.54.71.52.74a2.63,2.63,0,0,1-.64-.65,5.59,5.59,0,0,1-1-2.27,6.14,6.14,0,0,1,.42-3.66,5.69,5.69,0,0,1,7.44-3.06l.26.12a5,5,0,0,1,2.44,2.75,4.82,4.82,0,0,1,.28,2.44,3.66,3.66,0,0,1-.17.65C216.89,323.22,216.85,323.29,216.84,323.29Z"/><path class="cls-8" d="M224.61,323.29s.07-.32.12-.89a5.21,5.21,0,0,0-.39-2.34,4.86,4.86,0,0,0-2.35-2.52,5.38,5.38,0,0,0-7.13,2.62,1,1,0,0,0-.07.15,5.94,5.94,0,0,0-.47,3.45,5.77,5.77,0,0,0,.81,2.23,8.54,8.54,0,0,1,.51.74,2.33,2.33,0,0,1-.64-.65,5.59,5.59,0,0,1-1-2.27,6.3,6.3,0,0,1,.42-3.66,5.7,5.7,0,0,1,7.45-3l.25.11a5,5,0,0,1,2.44,2.75,4.82,4.82,0,0,1,.28,2.44,3,3,0,0,1-.17.65A.48.48,0,0,1,224.61,323.29Z"/><path class="cls-8" d="M230.5,323.7a7.54,7.54,0,0,0,.06-.9,4.89,4.89,0,0,0-.52-2.31,4.84,4.84,0,0,0-2.48-2.38,5.35,5.35,0,0,0-7,3.16,6,6,0,0,0-.29,3.47,5.81,5.81,0,0,0,1,2.18c.33.47.58.68.55.71a2.17,2.17,0,0,1-.67-.61,5.47,5.47,0,0,1-1.13-2.21,6.13,6.13,0,0,1,.21-3.67,5.68,5.68,0,0,1,7.25-3.48l.27.1a5,5,0,0,1,2.6,2.6,4.9,4.9,0,0,1,.42,2.44,3.05,3.05,0,0,1-.13.67A.61.61,0,0,1,230.5,323.7Z"/><path class="cls-8" d="M236.84,324.05v-.89a5,5,0,0,0-3.25-4.53A5.35,5.35,0,0,0,226.8,322l-.06.16a6,6,0,0,0-.09,3.49,5.83,5.83,0,0,0,1.09,2.13c.35.43.6.64.58.67a2.32,2.32,0,0,1-.71-.58,5.55,5.55,0,0,1-1.24-2.14,6.24,6.24,0,0,1,0-3.68,5.66,5.66,0,0,1,7.34-3.77,5.1,5.1,0,0,1,2.73,2.44,4.8,4.8,0,0,1,.54,2.44,2.57,2.57,0,0,1-.09.67C236.89,324,236.86,324.05,236.84,324.05Z"/><path class="cls-8" d="M243.18,323.91V323a5,5,0,0,0-.7-2.26,4.82,4.82,0,0,0-2.67-2.17,5.35,5.35,0,0,0-6.7,3.53c0,.06,0,.13-.05.19a5.94,5.94,0,0,0,1.14,5.58c.38.43.64.63.61.65a2.24,2.24,0,0,1-.72-.54,5.53,5.53,0,0,1-1.3-2.12,6.08,6.08,0,0,1-.09-3.68,5.77,5.77,0,0,1,2.76-3.54,5.64,5.64,0,0,1,4.46-.42,5.09,5.09,0,0,1,2.81,2.37,4.94,4.94,0,0,1,.61,2.44,3.07,3.07,0,0,1-.08.67C243.22,323.83,243.2,323.91,243.18,323.91Z"/><path class="cls-8" d="M248.53,324.61v-.89a5,5,0,0,0-.62-2.29,4.84,4.84,0,0,0-2.57-2.27,5.37,5.37,0,0,0-6.84,3.27,1.21,1.21,0,0,0-.05.18,6,6,0,0,0,.91,5.62c.36.45.61.65.59.68a2.18,2.18,0,0,1-.7-.58,5.53,5.53,0,0,1-1.22-2.16,6.12,6.12,0,0,1,.06-3.69,5.73,5.73,0,0,1,2.89-3.42,5.66,5.66,0,0,1,4.49-.25,5,5,0,0,1,2.69,2.49,4.68,4.68,0,0,1,.52,2.44,3,3,0,0,1-.09.66C248.57,324.54,248.55,324.62,248.53,324.61Z"/></g><g id="freepik--air-balloon--inject-59"><path class="cls-4" d="M271.94,158.15a43.15,43.15,0,0,0-6.72.31,28,28,0,0,0-24.38,27.86,50.09,50.09,0,0,0,1.73,13.29c3.91,13.86,5.12,26.08,4.67,32l13.08,7s6.06-8.7,11.91-12.46,25.32-13.81,33-24.09c5-6.65,5.92-20.32-5.92-32.23A40.17,40.17,0,0,0,271.94,158.15Z"/><polygon class="cls-10" points="240.98 246.77 252.8 253.16 245.11 262.93 237.23 259.35 240.98 246.77"/><path class="cls-8" d="M241.56,247.17a80.53,80.53,0,0,1,2.61-7.83c1.56-4.29,2.9-7.74,3-7.7a82.22,82.22,0,0,1-2.61,7.84C243,243.77,241.66,247.2,241.56,247.17Z"/><path class="cls-8" d="M252.06,252.7c-.1-.06,1.75-3.38,4.13-7.41s4.38-7.22,4.48-7.22-1.75,3.37-4.14,7.4S252.15,252.74,252.06,252.7Z"/><g class="cls-11"><path d="M275.84,158.52c-.53,0-7,7.64-9.9,12.79-9.68,17.34-10.12,34.2-12.8,53.86-.38,2.81-1.78,8.87-1.76,8.73a52.44,52.44,0,0,0,6.24,3.36s4.55-5.48,6.35-8.24c7.22-11,15.06-19.63,21.24-31.27s12.13-21.94,6.41-33.86C291.62,163.89,281.69,158.19,275.84,158.52Z"/></g><path class="cls-8" d="M305.26,203.86a1.84,1.84,0,0,1-.17-.38c-.11-.24-.24-.62-.46-1.09a19.14,19.14,0,0,0-2.28-3.85,20.1,20.1,0,0,0-5-4.68,19.07,19.07,0,0,0-8.24-3H289l-.05-.07a46.15,46.15,0,0,0-5.28-6.06,26.43,26.43,0,0,0-7.2-5,18.43,18.43,0,0,0-8.53-1.62,14,14,0,0,0-7.45,2.48l-.12.08-.11-.09a14.44,14.44,0,0,0-14.73-2.68,15.15,15.15,0,0,0-3.88,2.19c-.41.32-.72.58-.91.76a1.92,1.92,0,0,1-.32.26c.08-.1.18-.2.27-.3s.48-.47.88-.81a14.61,14.61,0,0,1,10.77-3.26,14.91,14.91,0,0,1,8.17,3.57h-.23a14.37,14.37,0,0,1,7.65-2.58,19,19,0,0,1,8.7,1.63,26.87,26.87,0,0,1,7.31,5,45.53,45.53,0,0,1,5.3,6.14l-.12-.07a19.24,19.24,0,0,1,8.35,3.15,19.8,19.8,0,0,1,5,4.8,18.34,18.34,0,0,1,2.21,3.93c.21.48.32.87.41,1.13S305.22,203.73,305.26,203.86Z"/><path class="cls-8" d="M280.93,221.13a8.33,8.33,0,0,0-1.13-2.84,7.8,7.8,0,0,0-2.51-2.44,7,7,0,0,0-4.33-1h-.16v-.16a11.58,11.58,0,0,0-7-8.83,11.75,11.75,0,0,0-5.08-.77,11.27,11.27,0,0,0-4.54,1.31l-.12.06-.1-.1a8.29,8.29,0,0,0-4.54-2.44,9.17,9.17,0,0,0-4.07.13,9.63,9.63,0,0,0-3.25,1.62,1,1,0,0,1,.17-.17,7.21,7.21,0,0,1,.55-.47,8.61,8.61,0,0,1,2.44-1.18,9.28,9.28,0,0,1,4.19-.21,8.49,8.49,0,0,1,4.75,2.51l-.22,0a11.75,11.75,0,0,1,9.92-.53,11.53,11.53,0,0,1,5,3.91,11.77,11.77,0,0,1,2.18,5.23l-.19-.15a7.31,7.31,0,0,1,4.51,1.13,7.83,7.83,0,0,1,2.54,2.55,6.87,6.87,0,0,1,.86,2.14q.06.3.09.6Z"/><path class="cls-8" d="M250.51,256.24a1.19,1.19,0,0,0-.43-.29,2.11,2.11,0,0,0-1.38.05,4.13,4.13,0,0,1-1,.18,1.64,1.64,0,0,1-1.17-.51c-.62-.66-.86-1.62-1.45-2.25a1.38,1.38,0,0,0-1.09-.46,6.65,6.65,0,0,0-1.24.25,2.69,2.69,0,0,1-1.23.06,2.36,2.36,0,0,1-1.75-1.81,1,1,0,0,1,0-.55,1.49,1.49,0,0,0,.14.52,2.42,2.42,0,0,0,.81,1.13,1.81,1.81,0,0,0,.86.38,2.34,2.34,0,0,0,1.08-.1,6.39,6.39,0,0,1,1.3-.27,1.75,1.75,0,0,1,1.4.57c.69.82.9,1.71,1.43,2.27a1.34,1.34,0,0,0,.91.44,3.55,3.55,0,0,0,1-.14,2.16,2.16,0,0,1,1.52.1C250.48,256,250.53,256.24,250.51,256.24Z"/><path class="cls-8" d="M251.87,254.32a49.63,49.63,0,0,1-5.76-2.84,51.29,51.29,0,0,1-5.58-3.2,50.57,50.57,0,0,1,5.77,2.84A52.11,52.11,0,0,1,251.87,254.32Z"/><path class="cls-8" d="M249.52,257.32l-.44.21c-.15.07-.31.16-.54.26a2,2,0,0,1-.81.11,3.37,3.37,0,0,1-1.95-.76,2.55,2.55,0,0,1-.74-1,3.82,3.82,0,0,0-.58-1.07,2.76,2.76,0,0,0-2.14-.62,4.9,4.9,0,0,1-2-.19,1.87,1.87,0,0,1-1-.95c-.13-.32-.09-.52-.07-.51s.05.17.21.43a1.84,1.84,0,0,0,1,.76,4.87,4.87,0,0,0,1.94.09,3,3,0,0,1,2.43.72,4,4,0,0,1,.64,1.17,2.38,2.38,0,0,0,.62.91,3.31,3.31,0,0,0,1.73.74,2.5,2.5,0,0,0,1.27-.22C249.34,257.3,249.52,257.3,249.52,257.32Z"/></g><g id="freepik--Character--inject-59"><path class="cls-4" d="M160.3,181.43l20.44-3L171,164.58l-5.23.31a9.35,9.35,0,0,0-8,5.63h0a9.33,9.33,0,0,0-.59,5.47Z"/><path class="cls-12" d="M160.3,181.43l20.44-3L171,164.58l-5.23.31a9.35,9.35,0,0,0-8,5.63h0a9.33,9.33,0,0,0-.59,5.47Z"/><path class="cls-13" d="M248.08,204.07c.21.58.44,1.28.68,2.1a6.81,6.81,0,0,1,.22,2.2,10,10,0,0,1-.47,2.7c-.33.81.45,1.56,1.11,1.17s1.62-2.51,1.62-5.22,2.72.54,3.75,1.71,4.4,4.64,5,4.6c.89-.05,1-1-.05-2.16s-4-4.79-3.35-5.31,5.81,5.51,5.81,5.51.89,1.48,1.63.91c1.38-1-4.6-7-5.18-7.59-.4-.39.28-1,.69-.54s5,6.14,6.44,5.1c1.08-.82-4.88-5-5.17-6.69s4.19,3.63,5.19,2.83c.38-.3.62-.57-2.44-3.25-1.46-1.31-7-5.21-7-5.21l-16.77-48-12.95,7.42Z"/><path class="cls-13" d="M148.24,113.25,129.5,90.89h0a14.06,14.06,0,0,0-.92-2.24A7,7,0,0,0,124.16,85c-1.19-.26-2.55-.13-3.49-.91-.41-.35-.69-.81-1.13-1.17a1,1,0,0,0-1.44.08,1.26,1.26,0,0,0,.08,1.12,10.36,10.36,0,0,0,3.25,4.19c-1.76.54-4.27,1.35-4.27,1.35s-4-4.3-6-4.29,1.63,3.84,1.63,3.84-3.25-3-4.26-2.16,1.58,3.08,1.58,3.08a4.3,4.3,0,0,0-2.64-.74c-.92.16-1.71,1.24-1.22,2a2.18,2.18,0,0,0,.82.66l5,2.78a6,6,0,0,0,2.66,1c2.54.08,4.46-1.49,7-1.43,0,0,14.13,29.76,15.56,31.29s32.51,3.63,32.51,3.63l18-15.49Z"/><path class="cls-4" d="M204.53,275.31l19.14,8.33-10.24,23.87c-2.22-1.11-1.49-15.44-1.49-15.44l-12.48-4.84Z"/><g class="cls-14"><path class="cls-6" d="M214.06,284.26a1.05,1.05,0,0,1,1.4-.2,1,1,0,0,1,.21,1.39,1.12,1.12,0,0,1-1.48.2,1.06,1.06,0,0,1-.06-1.47"/></g><path class="cls-15" d="M223.67,283.64l-2-.76-9.09,23.17s0,1.26.81,1.46Z"/><path class="cls-8" d="M211.64,292.42c.12,0,.42-.52,1.05-.93s1.23-.51,1.23-.63-.75-.25-1.49.27S211.52,292.39,211.64,292.42Z"/><path class="cls-8" d="M211.6,295.36c.1.08.52-.34,1.18-.53s1.23-.07,1.28-.19-.59-.47-1.41-.23S211.49,295.31,211.6,295.36Z"/><path class="cls-8" d="M214,298.07c.07-.09-.45-.51-1.21-.48s-1.26.46-1.18.55.56-.1,1.19-.11S213.92,298.2,214,298.07Z"/><path class="cls-8" d="M208.92,291c.13,0,.19-.61.52-1.25s.76-1.06.69-1.17-.71.21-1.08,1S208.8,291,208.92,291Z"/><path class="cls-8" d="M206.33,289.21a2.5,2.5,0,0,0,.5-1.2,5.13,5.13,0,0,0,.16-1.41,5.54,5.54,0,0,0-.07-.81,1.32,1.32,0,0,0-.13-.48.54.54,0,0,0-.59-.32.67.67,0,0,0-.49.39,1.89,1.89,0,0,0-.13.48,4.61,4.61,0,0,0,.19,2.27c.27.77.63,1.14.67,1.11s-.19-.46-.38-1.2a6,6,0,0,1-.14-1.33,5.58,5.58,0,0,1,.09-.81c0-.28.13-.5.27-.51s.07,0,.12.08a1.19,1.19,0,0,1,.09.36,5.58,5.58,0,0,1,.09.81,6.65,6.65,0,0,1-.05,1.34A8.75,8.75,0,0,0,206.33,289.21Z"/><path class="cls-8" d="M206.56,289.13a2.65,2.65,0,0,0-1-.81,4.39,4.39,0,0,0-1.38-.4,3.66,3.66,0,0,0-.81,0,1.12,1.12,0,0,0-.94.51.63.63,0,0,0,.13.64,1.72,1.72,0,0,0,.39.31,2.92,2.92,0,0,0,.81.35,3,3,0,0,0,1.45,0c.81-.21,1.17-.63,1.13-.65-.39.13-.79.25-1.19.34a3,3,0,0,1-1.29-.1,2.49,2.49,0,0,1-.68-.32c-.23-.15-.4-.33-.33-.41a.72.72,0,0,1,.57-.25,3.66,3.66,0,0,1,.81,0,4.71,4.71,0,0,1,1.29.27C206.12,288.87,206.52,289.18,206.56,289.13Z"/><path class="cls-4" d="M189.79,308.09l7.92,16.59,2.48,15a1.87,1.87,0,0,0,2.16,1.54l.13,0h0a1.89,1.89,0,0,0,1.31-1.12c1.45-3.6,6.74-16.89,6.09-18.07-.75-1.36-7.19-18.05-7.19-18.05Z"/><path class="cls-15" d="M202.48,341.13l6.89-20.32.33.71a2.84,2.84,0,0,1,.13,2c-.5,1.73-2,6.5-6,16.51A1.87,1.87,0,0,1,202.48,341.13Z"/><g class="cls-14"><path class="cls-6" d="M203.5,317a1.14,1.14,0,0,0,.33,1.48,1.1,1.1,0,0,0,1.48-.31,1.22,1.22,0,0,0-.36-1.57,1.15,1.15,0,0,0-1.5.5"/></g><path class="cls-8" d="M203,332.08a4.08,4.08,0,0,0-4.16-.14,1.3,1.3,0,0,1,.49-.49A2.93,2.93,0,0,1,201,331a3,3,0,0,1,1.58.52C202.92,331.81,203.05,332.05,203,332.08Z"/><path class="cls-8" d="M202.87,334.86a15.46,15.46,0,0,0-1.8-.05,17.4,17.4,0,0,0-1.74.52c-.09-.06.56-.81,1.68-.92A2.09,2.09,0,0,1,202.87,334.86Z"/><path class="cls-8" d="M203.94,328.21a18.56,18.56,0,0,0-2.78-.27,17,17,0,0,0-2.74.53,5.11,5.11,0,0,1,5.52-.26Z"/><path class="cls-8" d="M202,323c0,.13-1.1.15-2.33.65s-2,1.22-2.12,1.13A4.64,4.64,0,0,1,202,323Z"/><path class="cls-8" d="M199.76,318a9.31,9.31,0,0,0-2.44.62,9,9,0,0,0-2,1.55s0-.32.34-.71a4,4,0,0,1,1.46-1.21,4,4,0,0,1,1.84-.42C199.48,317.88,199.76,318,199.76,318Z"/><path class="cls-8" d="M196.93,317.71a1.85,1.85,0,0,1-.31-.63,5,5,0,0,1-.24-1.88,2.13,2.13,0,0,1,.42-1.31.75.75,0,0,1,.81-.21,1.29,1.29,0,0,1,.61.65,2.66,2.66,0,0,1-1.12,3.2,3.11,3.11,0,0,1-3.43-.23,1.07,1.07,0,0,1-.41-.81.76.76,0,0,1,.55-.68,2.73,2.73,0,0,1,1.36.08,5.2,5.2,0,0,1,1.73.82c.37.25.53.44.52.46a8.22,8.22,0,0,0-2.31-1,2.44,2.44,0,0,0-1.2-.05.42.42,0,0,0-.3.37.77.77,0,0,0,.3.5,2.74,2.74,0,0,0,3,.17,2.29,2.29,0,0,0,1-2.73.88.88,0,0,0-.4-.47.42.42,0,0,0-.47.1,1.85,1.85,0,0,0-.37,1.11A7.36,7.36,0,0,0,196.93,317.71Z"/><path class="cls-8" d="M216.46,277.34l-21.7-14.63,7.18-70.53-20.56-12-18.79-4.36s-7.85,16.34-11.38,26.82c-7.43,22.24-12.64,30.21-11.44,46.32.37,5.1,19.21,17.88,31.11,25a37.33,37.33,0,0,0,.63,4.22C175.57,296.51,188,321,188,321l18.85-8.77-6.08-20.84L207.1,295Zm-46.65-45.51,2.54-11.31c-.54,7.2-1,14.7-1.38,21.89a22.58,22.58,0,0,1-1.16-10.56Z"/><path class="cls-10" d="M188,321a2,2,0,0,1-.14-.3l-.4-.89L186,316.33c-1.25-3-3-7.31-5.2-12.71s-4.7-11.81-7.31-19c-.64-1.82-1.27-3.68-1.86-5.6-.26-1-.6-1.94-.77-3,0-.25-.1-.51-.14-.76l-.09-.77-.17-1.55q-.34-3.12-.55-6.35c-.06-1.08-.12-2.17-.17-3.25a28.29,28.29,0,0,1,0-3.32c.33-8.86,1.07-17.26,1.68-24.91s1.22-14.52,1.7-20.31.82-10.46,1-13.7c.1-1.63.16-2.88.19-3.72l.06-1a1.82,1.82,0,0,1,0-.33,1.82,1.82,0,0,1,0,.33v1c0,.85,0,2.11-.11,3.73-.14,3.25-.43,7.93-.86,13.71s-1,12.67-1.62,20.32-1.33,16.05-1.63,24.88c-.06,1.11,0,2.19,0,3.29s.1,2.17.17,3.25q.19,3.26.53,6.33l.17,1.55.09.77c0,.25.1.49.15.75a29.77,29.77,0,0,0,.75,2.92c.57,1.91,1.2,3.77,1.83,5.58,2.55,7.23,5.08,13.66,7.19,19.06s3.88,9.75,5.09,12.76c.59,1.49,1.07,2.66,1.39,3.47.15.38.27.68.35.9A1.22,1.22,0,0,0,188,321Z"/><path class="cls-10" d="M173.51,193.68a3.76,3.76,0,0,1-.49-.4,5.17,5.17,0,0,1-.92-1.48,15.88,15.88,0,0,1-.92-5.59,47,47,0,0,1,.26-5.69,13,13,0,0,1,.33-2.32,13.06,13.06,0,0,1,0,2.34c-.07,1.44-.19,3.43-.15,5.63a18,18,0,0,0,.81,5.5,6.25,6.25,0,0,0,.77,1.47A2.82,2.82,0,0,1,173.51,193.68Z"/><path class="cls-10" d="M165.4,176.9a4.63,4.63,0,0,1,.16,2,9.1,9.1,0,0,1-5.19,7.62,4.71,4.71,0,0,1-1.89.57c0-.06.7-.26,1.76-.81a9.64,9.64,0,0,0,5-7.39C165.42,177.65,165.33,176.9,165.4,176.9Z"/><path class="cls-10" d="M199.12,217.9v.21a3.19,3.19,0,0,1-.05.63c-.06.58-.14,1.39-.24,2.44-.24,2.12-.56,5.13-1,8.84-.81,7.5-2,17.79-3.3,29.18a53.51,53.51,0,0,0,1.07,16,54.65,54.65,0,0,0,2,6.74c.73,2.08,1.4,4,2,5.8,1.23,3.53,2.22,6.4,2.92,8.41.32,1,.58,1.74.81,2.3l.19.6a.46.46,0,0,1,.05.2.4.4,0,0,0-.09-.19,3,3,0,0,1-.22-.59c-.22-.54-.49-1.3-.82-2.27l-3-8.36c-.63-1.77-1.33-3.71-2.08-5.78a55.58,55.58,0,0,1-2-6.79,52.63,52.63,0,0,1-1.12-16.12c1.27-11.42,2.54-21.71,3.42-29.18.47-3.7.82-6.72,1.1-8.83.13-1,.24-1.82.32-2.44a2.94,2.94,0,0,1,.09-.61A.69.69,0,0,1,199.12,217.9Z"/><polyline class="cls-13" points="162.59 175.7 165.92 167.19 173.52 178.52 163.38 175.99"/><path class="cls-4" d="M242.08,150.13l-9-20.21c-1.08-3.25-3.11-3.76-4.8-5.64l-22.58-12.74c-16.46-6.74-25.43,15.87-25.43,15.87l-15,34.13c-17.59,5.82-5.13,19.34-5.13,19.34s-4.79-8.32-.08-11.32c4.93-3.15,10.39,5.13,15.64,13,6.2,9.28,26.33,15.31,26.33,15.31,2.36-2.49,1.7-11.17,3.55-15.84.58-1.47,14.53-33.77,14.53-33.77l5.4,13.09s6.92-8.13,10.29-9.41A37.84,37.84,0,0,1,242.08,150.13Z"/><path class="cls-8" d="M202.06,164.49a3.28,3.28,0,0,1-.69.48,12.81,12.81,0,0,1-2.05,1,14.71,14.71,0,0,1-14.27-2.2,12.89,12.89,0,0,1-1.67-1.55,2.62,2.62,0,0,1-.5-.65c.06-.06.81.86,2.34,2a15.27,15.27,0,0,0,14,2.16A30.39,30.39,0,0,0,202.06,164.49Z"/><path class="cls-4" d="M164.68,132.43h0l13.93,1.31,22.3-23.56-13.12-.46L164.45,112A60.75,60.75,0,0,1,164.68,132.43Z"/><path class="cls-8" d="M184,120a1.43,1.43,0,0,1-.17.43l-.56,1.2c-.5,1.09-1.21,2.59-2.06,4.41-1.73,3.74-4.07,8.94-6.5,14.71s-4.77,11-6.51,14.74c-.85,1.88-1.56,3.38-2.06,4.42l-.59,1.19a2.44,2.44,0,0,1-.24.41,3.29,3.29,0,0,1,.16-.44l.52-1.22,2-4.47c1.63-3.83,3.9-9,6.37-14.79s4.87-11,6.64-14.67c.9-1.85,1.62-3.34,2.18-4.36q.39-.7.63-1.17A2.55,2.55,0,0,1,184,120Z"/><path class="cls-8" d="M226.53,126.88c0,.07-.81.52-2,1.53a13.27,13.27,0,0,0-1.88,1.94,15.73,15.73,0,0,0-1.77,2.8,17.29,17.29,0,0,0-1.11,3.12,15.38,15.38,0,0,0-.36,2.69c0,1.55.13,2.5,0,2.51a2.45,2.45,0,0,1-.16-.66,4.27,4.27,0,0,1-.11-.81,9.46,9.46,0,0,1-.06-1.07,12.74,12.74,0,0,1,.29-2.76,15.53,15.53,0,0,1,1.09-3.25,15.37,15.37,0,0,1,1.85-2.86,13,13,0,0,1,2-1.93,6.83,6.83,0,0,1,.87-.62,6,6,0,0,1,.69-.41A2.06,2.06,0,0,1,226.53,126.88Z"/><path class="cls-13" d="M230.43,94.51,217.35,119a8.63,8.63,0,0,1-11.12,3.81h0a8.63,8.63,0,0,1-4.31-11.41l.24-.49,2.25-4.24s-5.69-3.68-3-9.83c2.37-5.47,11.08-20.94,12.93-24.21l11,4.93a12.38,12.38,0,0,1,5.25,16.7Z"/><path class="cls-16" d="M204.41,106.53a15.6,15.6,0,0,0,9,1.3s-3.85,3.55-9.7.28Z"/><path class="cls-8" d="M208.61,87a1,1,0,0,0,.45,1.26.93.93,0,0,0,1.25-.37v0a1,1,0,0,0-.44-1.26.93.93,0,0,0-1.25.37Z"/><path class="cls-8" d="M208.66,86.21c.06.17.94,0,1.88.39s1.41,1.2,1.57,1.13,0-.28-.15-.63a2.69,2.69,0,0,0-1.19-1,2.54,2.54,0,0,0-1.56-.17C208.83,86,208.63,86.11,208.66,86.21Z"/><path class="cls-8" d="M217.4,91.31a1,1,0,0,0,.45,1.26.92.92,0,0,0,1.24-.38h0a1,1,0,0,0-.45-1.25.91.91,0,0,0-1.24.35Z"/><path class="cls-8" d="M217.81,90.51c.06.17.94,0,1.88.39s1.41,1.21,1.57,1.14.06-.28-.15-.64a2.67,2.67,0,0,0-1.19-1,2.54,2.54,0,0,0-1.56-.17C218,90.28,217.78,90.44,217.81,90.51Z"/><path class="cls-8" d="M211.29,96a7.35,7.35,0,0,0-1.4-1c-.23-.14-.44-.29-.41-.46a1.76,1.76,0,0,1,.48-.65l1.53-1.51a34.13,34.13,0,0,0,3.73-4.06,33.48,33.48,0,0,0-4.06,3.75l-1.51,1.53a1.51,1.51,0,0,0-.54.89.66.66,0,0,0,.24.52,1.36,1.36,0,0,0,.38.24A6.26,6.26,0,0,0,211.29,96Z"/><path class="cls-8" d="M213.76,97.83c-.15-.07-.6,1-1.8,1.28s-2.23-.26-2.31-.12.16.3.61.52a2.77,2.77,0,0,0,1.9.16,2.34,2.34,0,0,0,1.44-1.1C213.83,98.17,213.83,97.87,213.76,97.83Z"/><path class="cls-8" d="M219.22,86.73c0,.3,1,.59,2,1.22s1.8,1.32,2,1.16.07-.39-.17-.82a4.17,4.17,0,0,0-3.1-1.81C219.53,86.48,219.23,86.59,219.22,86.73Z"/><path class="cls-8" d="M210.22,83.67c.08.29.82.36,1.63.69s1.37.81,1.62.64.12-.35-.09-.67a2.3,2.3,0,0,0-1.13-.93,2.43,2.43,0,0,0-1.46-.14C210.39,83.33,210.18,83.51,210.22,83.67Z"/><path class="cls-7" d="M226.31,98.18c.13,0,4.76.63,2.76,4.75s-5.69,1.26-5.69,1.14S226.31,98.18,226.31,98.18Z"/><path class="cls-17" d="M225.41,103.12l.14.2a.85.85,0,0,0,.54.27,2,2,0,0,0,1.62-1.2,2.56,2.56,0,0,0,.3-1.12.91.91,0,0,0-.27-.81.4.4,0,0,0-.52,0c-.11.09-.13.18-.15.18s-.06-.12.06-.27a.52.52,0,0,1,.29-.18.61.61,0,0,1,.45.09,1.13,1.13,0,0,1,.43,1,2.67,2.67,0,0,1-.3,1.27,2.08,2.08,0,0,1-1.91,1.27.88.88,0,0,1-.61-.43C225.37,103.22,225.4,103.12,225.41,103.12Z"/><path class="cls-8" d="M228.7,99.11a2.45,2.45,0,0,0-2.44.14c-.53.47-.9,1.12-1.43,1.62a1.63,1.63,0,0,1-2,.31,1.4,1.4,0,0,1-.44-1.34,4,4,0,0,1,.59-1.36c1.12-1.83,2.39-3.59,3.35-5.51a10.93,10.93,0,0,0,1.31-6.24A6,6,0,0,0,224,81.8c-1.34-.47-2.83-.33-4.21-.72a5.63,5.63,0,0,1-3.6-3.32,10.54,10.54,0,0,0-.54-.92c.05-.1.54-.93,1-1.09,3.62-1.23,8.52.18,11.52,2.54a13.29,13.29,0,0,1,5.13,10c0,3.82-2.36,8-4.6,10.87"/><path class="cls-8" d="M228.74,98.66c1.15-2,3-3.35,4.42-5.11s2.43-4.23,1.38-6.25c-.34-.69-.9-1.26-1.18-2A9.84,9.84,0,0,1,233,83,7.92,7.92,0,0,0,229,77.35c-1.45-.81-3.11-1.14-4.58-1.91-2.32-1.22-4-3.48-6.5-4.45a3.14,3.14,0,0,0-2.53-.08,1.53,1.53,0,0,0-.71,2l.08.15a1.32,1.32,0,0,0-1.61-1l-.22.08a2,2,0,0,0-1,2,4.33,4.33,0,0,0,.89,2.14,11,11,0,0,0,6.25,4.32l5.62-.44,4.6,3.41,3.4,5.42-6.17,8Z"/></g><g id="freepik--light-bulb--inject-59"><path class="cls-4" d="M193.65,66.69a19.82,19.82,0,1,0-27,19.7l.32,5,17.33-1.12s-.07-2.8-.2-5.31A19.8,19.8,0,0,0,193.65,66.69Z"/><path class="cls-8" d="M178,90.59v-1c0-.63.09-1.56.18-2.76s.24-2.66.51-4.34a29.64,29.64,0,0,1,1.44-5.63,19.35,19.35,0,0,1,1.43-3.06,3.71,3.71,0,0,1,1.28-1.3,2.08,2.08,0,0,1,1.88-.06,1.35,1.35,0,0,1,.67.74,1.32,1.32,0,0,1,0,1,2.83,2.83,0,0,1-1.44,1.41,5.43,5.43,0,0,1-7.05-3.08l0-.06a4.05,4.05,0,0,1-.27-2.28,1.78,1.78,0,0,1,1.71-1.49,1.27,1.27,0,0,1,1.05.64,1.8,1.8,0,0,1,.24,1.2,4,4,0,0,1-1.26,2.06,5.89,5.89,0,0,1-4.53,1.62,5.17,5.17,0,0,1-4-2.6,3,3,0,0,1-.28-2.39,1.44,1.44,0,0,1,1.79-1l.24.1a1.94,1.94,0,0,1,.89.81,3,3,0,0,1,.38,1.12,5.66,5.66,0,0,1-.16,2.28,5.86,5.86,0,0,1-2.57,3.49,6,6,0,0,1-4.07.81,3.15,3.15,0,0,1-1.83-.81,1.53,1.53,0,0,1-.24-1.89,1.34,1.34,0,0,1,.86-.5,2,2,0,0,1,1,.12,2.83,2.83,0,0,1,1.29,1.29c.57,1,1,2.05,1.51,3,1.83,3.88,3.17,7.09,4.06,9.32.45,1.11.81,2,1,2.57.1.29.19.52.25.67a1.09,1.09,0,0,1,.07.24l-.09-.23-.28-.66-1.05-2.56c-.92-2.21-2.28-5.41-4.13-9.28-.48-1-1-2-1.52-3a2.68,2.68,0,0,0-1.2-1.2,1.19,1.19,0,0,0-1.36,1.94,3,3,0,0,0,1.72.75,5.78,5.78,0,0,0,3.91-.81,5.69,5.69,0,0,0,2.44-3.36,5.59,5.59,0,0,0,.14-2.19,2.13,2.13,0,0,0-1.13-1.75,1.24,1.24,0,0,0-1,0,1.26,1.26,0,0,0-.67.81,2.77,2.77,0,0,0,.26,2.2A5,5,0,0,0,173.79,74a5.64,5.64,0,0,0,4.33-1.57,3.6,3.6,0,0,0,1.18-1.9,1.53,1.53,0,0,0-.2-1,1,1,0,0,0-.85-.52,1.44,1.44,0,0,0-1,.38,1.59,1.59,0,0,0-.5.92,3.82,3.82,0,0,0,.25,2.14,5.23,5.23,0,0,0,6.72,3.08l.1,0a2.63,2.63,0,0,0,1.34-1.31,1.17,1.17,0,0,0-.56-1.5,1.83,1.83,0,0,0-1.69,0,3.42,3.42,0,0,0-1.2,1.22,19.4,19.4,0,0,0-1.43,3,29.2,29.2,0,0,0-1.46,5.58c-.29,1.68-.44,3.14-.55,4.34s-.18,2.11-.23,2.75c0,.3,0,.55-.06.72S178,90.59,178,90.59Z"/><path class="cls-8" d="M183.13,93.55l-14.87,1a1.14,1.14,0,0,1-1.2-1h0a1.13,1.13,0,0,1,1.05-1.19l14.88-1a1.1,1.1,0,0,1,1.19,1h0A1.12,1.12,0,0,1,183.13,93.55Z"/><path class="cls-8" d="M183.2,94.53l-14.88,1a1.12,1.12,0,0,0,.14,2.23l1.63-.1,2.44,4a1.46,1.46,0,0,0,1.32.68l5.31-.34a1.48,1.48,0,0,0,1.23-.86l1.84-4.25,1.11-.08a1.12,1.12,0,0,0-.14-2.23Z"/><g class="cls-18"><path class="cls-6" d="M160.36,56.19a14.49,14.49,0,0,1,3.8-2.89,11,11,0,0,1,3-1.09c.75-.12,1.18-.08,1.23.08.11.35-1.36,1-3.25,2.43a16.3,16.3,0,0,0-6.38,16.45c.43,2.4,1.09,3.85.81,4.07s-.48-.18-1-.77a10.7,10.7,0,0,1-1.48-2.82,14.57,14.57,0,0,1-.81-4.68,15.38,15.38,0,0,1,1-5.81"/></g><g class="cls-18"><path class="cls-6" d="M173.17,52.84c-1.25.06-2.38-.2-2.55-.86-.08-.33.13-.69.56-1a4,4,0,0,1,3.74-.23c.47.25.72.59.69.93"/></g><path class="cls-10" d="M180.12,101.45a8.93,8.93,0,0,1-1.05-.25,8.75,8.75,0,0,0-2.55-.16,8.88,8.88,0,0,0-2.43.63c-.61.26-1,.47-1,.44a3,3,0,0,1,.9-.59,7.2,7.2,0,0,1,2.52-.71,7,7,0,0,1,2.61.23A3.14,3.14,0,0,1,180.12,101.45Z"/><path class="cls-10" d="M182.27,96.88c0,.07-2.68.3-6,.52s-6,.33-6,.26,2.68-.3,6-.51S182.26,96.82,182.27,96.88Z"/><path class="cls-10" d="M181.45,98.71A9.07,9.07,0,0,1,180,99c-.9.12-2.15.25-3.54.36s-2.64.17-3.55.2a9,9,0,0,1-1.47,0,8,8,0,0,1,1.46-.16l3.54-.27,3.55-.29A9,9,0,0,1,181.45,98.71Z"/></g><g id="freepik--Book--inject-59"><path class="cls-4" d="M74.31,198.25l3.25,5.18s13.82-12.69,27.46-9.1C105,194.31,92.71,183.89,74.31,198.25Z"/><path class="cls-4" d="M105,194.31s10.11-11,24.95-8.48l4.07.61-1.29-2.34S106.9,175.26,105,194.31Z"/><path class="cls-3" d="M83.64,157.26S63.37,153.78,50.1,161l21.12,39.72S88.5,184,105,194.29Z"/><path class="cls-8" d="M83.64,157.26l.11.16.31.51,1.17,2,4.38,7.53,15.54,26.81a.18.18,0,0,1-.07.25.17.17,0,0,1-.17,0,22.28,22.28,0,0,0-7.78-3,23.79,23.79,0,0,0-4.38-.31,26.14,26.14,0,0,0-4.49.57,38.46,38.46,0,0,0-16.75,8.93l-.18.17a.2.2,0,0,1-.28,0h0v0L49.94,161.05a.16.16,0,0,1,.05-.21h0a40.9,40.9,0,0,1,13.5-4,68.66,68.66,0,0,1,10.82-.47c3,.1,5.32.34,6.9.53.81.1,1.39.19,1.8.26l.46.08h0l-.47-.05c-.4,0-1-.13-1.8-.21-1.63-.17-3.92-.37-6.9-.44a69.22,69.22,0,0,0-10.77.54,40.78,40.78,0,0,0-13.38,4.06l.06-.22,21.13,39.73-.31-.06.17-.16a42.83,42.83,0,0,1,8.08-5.69,33.62,33.62,0,0,1,8.88-3.37,26.83,26.83,0,0,1,4.55-.57,24.6,24.6,0,0,1,4.46.32,22.94,22.94,0,0,1,7.9,3l-.26.24L89.47,167.57,85.14,160,84,158l-.28-.53Z"/><path class="cls-3" d="M115.5,149.11s-15.33-9.75-31.6,8.13l21.36,37s4.35-15,29.85-9.81Z"/><path class="cls-8" d="M115.5,149.11a.86.86,0,0,1,.1.16l.28.48,1.08,1.88,4.06,7.18,14.25,25.63a.18.18,0,0,1-.06.23h0a.13.13,0,0,1-.12,0h0l-3.8-.62a15.94,15.94,0,0,0-1.95-.22l-2-.17a17.36,17.36,0,0,0-2,0h-2.06c-.7,0-1.39.14-2.09.21a14.84,14.84,0,0,0-2.09.31l-2.09.48-2.06.72a20.89,20.89,0,0,0-2,.92,5.64,5.64,0,0,0-1,.54l-.93.6c-.62.42-1.17.92-1.75,1.38a18.22,18.22,0,0,0-1.54,1.63,12.71,12.71,0,0,0-2.27,3.9h0a.2.2,0,0,1-.26.12.19.19,0,0,1-.11-.09l-.86-1.48c-7.55-13.13-14.63-25.36-20.47-35.57a.2.2,0,0,1,0-.21,36,36,0,0,1,11.56-8.69,23.19,23.19,0,0,1,10.92-2,22.38,22.38,0,0,1,7,1.56,17.64,17.64,0,0,1,1.7.81l.43.25.13.09-.15-.07-.43-.22c-.38-.18-1-.46-1.71-.75a22.79,22.79,0,0,0-17.75.64A35.83,35.83,0,0,0,84,157.32v-.2l20.52,35.6.9,1.47-.38.05a13.35,13.35,0,0,1,2.35-4.07,22.76,22.76,0,0,1,1.58-1.68c.6-.48,1.16-1,1.79-1.41l1-.62a6,6,0,0,1,1-.55c.68-.32,1.32-.7,2-.95l2.09-.72,2.13-.48a15.2,15.2,0,0,1,2.13-.32c.7-.06,1.4-.19,2.1-.2h2.09a15.75,15.75,0,0,1,2.06,0l2,.17a16.65,16.65,0,0,1,2,.22l3.81.64-.18.26c-5.83-10.56-10.7-19.41-14.13-25.64l-4-7.24-1-1.92-.26-.5A.67.67,0,0,1,115.5,149.11Z"/><path class="cls-3" d="M55.78,141.87l22.86,44s18.57-.81,26.44,8.24L83.9,157.26S71.48,141.87,55.78,141.87Z"/><path class="cls-8" d="M55.78,141.87h.59l1.75.07h.62l.68.12,1.52.25a12.75,12.75,0,0,1,1.75.42,19.14,19.14,0,0,1,2,.58c5.46,1.82,12.79,6.22,19.37,13.81h0L105.23,194a.2.2,0,0,1-.07.28.18.18,0,0,1-.24,0h0l-.9-.9a19.39,19.39,0,0,0-5.85-3.86,34,34,0,0,0-6.54-2.14,54.12,54.12,0,0,0-13-1.28h0a.19.19,0,0,1-.17-.1C71.79,173,66.1,162,62.07,154.17c-2-3.86-3.55-6.95-4.66-9.08-.53-1-.94-1.84-1.23-2.44l-.31-.61-.09-.2a1.55,1.55,0,0,1,.12.22l.34.62,1.28,2.44,4.76,9.12,16.5,31.55-.17-.1A54.3,54.3,0,0,1,91.7,187a33.71,33.71,0,0,1,6.62,2.16,19.67,19.67,0,0,1,6,3.95l.93.91-.34.23C97,180.52,89.74,167.83,83.75,157.35h0a53.14,53.14,0,0,0-10-9,38.24,38.24,0,0,0-9.16-4.78,19,19,0,0,0-1.95-.59,11.86,11.86,0,0,0-1.73-.44l-1.52-.28-.66-.12-.6-.05Z"/></g><g id="freepik--Stars--inject-59"><path class="cls-4" d="M127.13,266.67l.49.82a5.65,5.65,0,0,0,2.31,2.13l.81.42-.81.49a5.69,5.69,0,0,0-2.13,2.3l-.42.86-.49-.82a5.56,5.56,0,0,0-2.31-2.12l-.85-.43.81-.48a5.52,5.52,0,0,0,2.13-2.31Z"/><path class="cls-4" d="M82.08,99.05l.49.82A5.63,5.63,0,0,0,84.88,102l.81.42-.81.5a5.44,5.44,0,0,0-2.13,2.3l-.43.82-.48-.82a5.68,5.68,0,0,0-2.32-2.13l-.85-.42.81-.49a5.71,5.71,0,0,0,2.13-2.31Z"/><path class="cls-4" d="M290.58,128l.49.81a5.68,5.68,0,0,0,2.32,2.13l.85.42-.81.49a5.5,5.5,0,0,0-2.12,2.31l-.43.82-.49-.82a5.56,5.56,0,0,0-2.31-2.12l-.86-.4.81-.5a5.52,5.52,0,0,0,2.13-2.31Z"/><path class="cls-4" d="M266,277.2l.49.81a5.62,5.62,0,0,0,2.31,2.12l.86.42-.81.5a5.52,5.52,0,0,0-2.13,2.31l-.42.85-.49-.81a5.52,5.52,0,0,0-2.31-2.13l-.85-.42.81-.49a5.61,5.61,0,0,0,2.13-2.32Z"/><path class="cls-4" d="M270.65,308.56l.24.09a1.59,1.59,0,0,0,.81.09l.25-.05-.1.23a1.5,1.5,0,0,0-.08.81l.05.26-.24-.1a1.48,1.48,0,0,0-.81-.08l-.25.05.1-.24a1.5,1.5,0,0,0,.08-.81Z"/><path class="cls-4" d="M284.83,96.52l.23.1a1.6,1.6,0,0,0,.81.08l.24,0-.08.23a1.44,1.44,0,0,0-.09.82L286,98l-.23-.1a1.52,1.52,0,0,0-.82-.08l-.24,0,.09-.24a1.49,1.49,0,0,0,.08-.81Z"/><path class="cls-4" d="M91.24,77.17l.23.09a1.52,1.52,0,0,0,.82.08h.25l-.1.23a1.5,1.5,0,0,0-.08.81l0,.24-.24-.09a1.49,1.49,0,0,0-.81-.08h-.25l.1-.22a1.63,1.63,0,0,0,.08-.82Z"/><path class="cls-4" d="M115.11,242.26l.23.09a1.33,1.33,0,0,0,.81.08l.26,0-.1.24a1.5,1.5,0,0,0-.08.81l0,.24-.24-.08a1.41,1.41,0,0,0-.81-.09l-.25.05.09-.23a1.52,1.52,0,0,0,.08-.82Z"/><path class="cls-4" d="M141,306.08l-.23.23-.68.68-2.62,2.59-9.75,9.4v-.09c.51,10.19,1.16,24,1.84,39.45v.34l-.29-.19-3.52-2.35-22.3-14.93h0v0c-3.33-9.94-6.13-18.33-8.12-24.24-1-2.94-1.74-5.27-2.28-6.88l-.58-1.82c-.07-.2-.12-.35-.15-.47a.41.41,0,0,0,0-.16l.07.15.17.46c.14.43.35,1,.63,1.81l2.36,6.85c2,5.91,4.87,14.27,8.24,24.19l-.07-.08L126,355.88l3.52,2.34-.27.16c-.66-15.44-1.25-29.26-1.69-39.47v-.06h0l9.81-9.31,2.68-2.51.7-.64A1.25,1.25,0,0,1,141,306.08Z"/><polygon class="cls-4" points="130.65 353.67 130.58 355.96 132.44 357.33 130.23 357.97 129.5 360.16 128.21 358.26 125.91 358.25 127.32 356.43 126.61 354.23 128.78 355.01 130.65 353.67"/><polygon class="cls-4" points="103.79 338.06 103.83 339.54 105.09 340.36 103.68 340.85 103.3 342.3 102.39 341.12 100.9 341.2 101.74 339.96 101.2 338.57 102.63 339 103.79 338.06"/><polygon class="cls-4" points="92.21 304.79 93.33 306.24 95.16 306.13 94.14 307.65 94.81 309.35 93.05 308.84 91.64 310 91.57 308.18 90.04 307.19 91.75 306.57 92.21 304.79"/><polygon class="cls-4" points="139.91 303.36 141.04 304.79 142.86 304.69 141.83 306.2 142.5 307.91 140.74 307.39 139.33 308.56 139.27 306.73 137.73 305.75 139.45 305.12 139.91 303.36"/><polygon class="cls-4" points="127.39 317.28 128.11 318.21 129.27 318.14 128.62 319.1 129.04 320.19 127.92 319.87 127.02 320.61 126.98 319.45 126 318.81 127.09 318.41 127.39 317.28"/></g><g id="freepik--Planets--inject-59"><circle class="cls-4" cx="84.38" cy="239.62" r="16.2"/><g class="cls-19"><path class="cls-6" d="M82.28,244.68A2.65,2.65,0,1,1,79.62,242h0A2.65,2.65,0,0,1,82.28,244.68Z"/></g><g class="cls-19"><path class="cls-6" d="M78.54,237.05A1.55,1.55,0,1,1,77,235.52h0A1.55,1.55,0,0,1,78.54,237.05Z"/></g><path class="cls-4" d="M68.66,243.56c.07.29-13.88,13.66-10.28,16.52S77.07,255.61,90,245.2s24.66-23,21.43-26.4-19.33,6.56-19.33,6.56L94,226.6s9.75-6.25,12.82-3.83-5.69,11.89-18.1,20.95-24.37,15.39-26.22,12.91,6.91-10.74,6.91-10.74Z"/><g class="cls-19"><path d="M68.66,243.56c.07.29-13.88,13.66-10.28,16.52S77.07,255.61,90,245.2s24.66-23,21.43-26.4-19.33,6.56-19.33,6.56L94,226.6s9.75-6.25,12.82-3.83-5.69,11.89-18.1,20.95-24.37,15.39-26.22,12.91,6.91-10.74,6.91-10.74Z"/></g><g class="cls-19"><path class="cls-6" d="M75.45,228.2c.13.16-1,1.09-2.21,3a14.92,14.92,0,0,0-.33,16.39c1.17,1.93,2.23,2.9,2.09,3s-1.38-.63-2.83-2.55a14.28,14.28,0,0,1,.35-17.41C74,228.79,75.38,228.09,75.45,228.2Z"/></g><circle class="cls-4" cx="262.97" cy="87.8" r="13.37"/><g class="cls-11"><path d="M267.33,82.7a2.18,2.18,0,1,1,2.13,2.22,2.18,2.18,0,0,1-2.13-2.22Z"/></g><g class="cls-11"><path d="M271.69,87.78a1.28,1.28,0,0,1,2.55,0,1.26,1.26,0,0,1-1.3,1.25h0a1.26,1.26,0,0,1-1.24-1.29Z"/></g><g class="cls-11"><path d="M270,91.68a.47.47,0,0,1,.46.46h0a.48.48,0,0,1-.48.47.47.47,0,0,1,0-.94Z"/></g></g></svg>