<svg width="389" height="397" viewBox="0 0 389 397" fill="none" xmlns="http://www.w3.org/2000/svg">
<path d="M373.905 318.126C373.905 317.937 374.783 317.783 375.889 317.783C376.996 317.783 377.869 317.937 377.869 318.126C377.869 318.315 376.991 318.473 375.889 318.473C374.787 318.473 373.905 318.319 373.905 318.126Z" fill="#E1E1E1"/>
<path d="M365.972 318.126C365.972 317.937 366.85 317.783 367.952 317.783C369.054 317.783 369.937 317.937 369.937 318.126C369.937 318.315 369.059 318.473 367.952 318.473C366.846 318.473 365.972 318.319 365.972 318.126Z" fill="#E1E1E1"/>
<path d="M358.04 318.126C358.04 317.937 358.918 317.783 360.019 317.783C361.121 317.783 362.004 317.937 362.004 318.126C362.004 318.315 361.126 318.473 360.019 318.473C358.913 318.473 358.04 318.319 358.04 318.126Z" fill="#E1E1E1"/>
<path d="M350.103 318.126C350.103 317.937 350.981 317.783 352.087 317.783C353.193 317.783 354.071 317.937 354.071 318.126C354.071 318.315 353.193 318.473 352.087 318.473C350.981 318.473 350.103 318.319 350.103 318.126Z" fill="#E1E1E1"/>
<path d="M342.17 318.126C342.17 317.937 343.048 317.783 344.154 317.783C345.26 317.783 346.138 317.937 346.138 318.126C346.138 318.315 345.26 318.473 344.154 318.473C343.048 318.473 342.17 318.319 342.17 318.126Z" fill="#E1E1E1"/>
<path d="M334.237 318.126C334.237 317.937 335.115 317.783 336.221 317.783C337.328 317.783 338.206 317.937 338.206 318.126C338.206 318.315 337.328 318.473 336.221 318.473C335.115 318.473 334.237 318.319 334.237 318.126Z" fill="#E1E1E1"/>
<path d="M326.304 318.126C326.304 317.937 327.182 317.783 328.288 317.783C329.395 317.783 330.273 317.937 330.273 318.126C330.273 318.315 329.395 318.473 328.288 318.473C327.182 318.473 326.304 318.319 326.304 318.126Z" fill="#E1E1E1"/>
<path d="M318.372 318.126C318.372 317.937 319.25 317.783 320.356 317.783C321.462 317.783 322.336 317.937 322.336 318.126C322.336 318.315 321.458 318.473 320.356 318.473C319.254 318.473 318.372 318.319 318.372 318.126Z" fill="#E1E1E1"/>
<path d="M310.439 318.126C310.439 317.937 311.317 317.783 312.423 317.783C313.53 317.783 314.403 317.937 314.403 318.126C314.403 318.315 313.525 318.473 312.423 318.473C311.321 318.473 310.439 318.319 310.439 318.126Z" fill="#E1E1E1"/>
<path d="M302.506 318.126C302.506 317.937 303.384 317.783 304.486 317.783C305.588 317.783 306.47 317.937 306.47 318.126C306.47 318.315 305.592 318.473 304.486 318.473C303.38 318.473 302.506 318.319 302.506 318.126Z" fill="#E1E1E1"/>
<path d="M294.569 318.126C294.569 317.937 295.447 317.783 296.553 317.783C297.66 317.783 298.538 317.937 298.538 318.126C298.538 318.315 297.66 318.473 296.553 318.473C295.447 318.473 294.569 318.319 294.569 318.126Z" fill="#E1E1E1"/>
<path d="M286.636 318.126C286.636 317.937 287.514 317.783 288.62 317.783C289.727 317.783 290.605 317.937 290.605 318.126C290.605 318.315 289.727 318.473 288.62 318.473C287.514 318.473 286.636 318.319 286.636 318.126Z" fill="#E1E1E1"/>
<path d="M280.986 315.839C281.175 315.839 281.329 316.717 281.329 317.823C281.329 317.919 281.329 318.012 281.329 318.117L280.991 317.779C281.943 317.779 282.676 317.946 282.676 318.117C282.676 318.288 281.943 318.433 280.991 318.459H280.653V318.108C280.653 318.003 280.653 317.911 280.653 317.814C280.639 316.717 280.793 315.839 280.986 315.839Z" fill="#E1E1E1"/>
<path d="M280.986 307.937C281.175 307.937 281.329 308.815 281.329 309.916C281.329 311.018 281.175 311.901 280.986 311.901C280.798 311.901 280.64 311.023 280.64 309.916C280.64 308.81 280.793 307.937 280.986 307.937Z" fill="#E1E1E1"/>
<path d="M280.986 299.982C281.175 299.982 281.329 300.86 281.329 301.962C281.329 303.064 281.175 303.946 280.986 303.946C280.798 303.946 280.64 303.068 280.64 301.962C280.64 300.855 280.793 299.982 280.986 299.982Z" fill="#E1E1E1"/>
<path d="M280.986 292.045C281.175 292.045 281.329 292.923 281.329 294.029C281.329 295.135 281.175 296.013 280.986 296.013C280.798 296.013 280.64 295.135 280.64 294.029C280.64 292.923 280.793 292.045 280.986 292.045Z" fill="#E1E1E1"/>
<path d="M280.986 284.112C281.175 284.112 281.329 284.99 281.329 286.096C281.329 287.203 281.175 288.081 280.986 288.081C280.798 288.081 280.64 287.203 280.64 286.096C280.64 284.99 280.793 284.112 280.986 284.112Z" fill="#E1E1E1"/>
<path d="M280.986 276.179C281.175 276.179 281.329 277.057 281.329 278.164C281.329 279.27 281.175 280.148 280.986 280.148C280.798 280.148 280.64 279.27 280.64 278.164C280.64 277.057 280.793 276.179 280.986 276.179Z" fill="#E1E1E1"/>
<path d="M280.986 268.247C281.175 268.247 281.329 269.125 281.329 270.231C281.329 271.337 281.175 272.215 280.986 272.215C280.798 272.215 280.64 271.337 280.64 270.231C280.64 269.125 280.793 268.247 280.986 268.247Z" fill="#E1E1E1"/>
<path d="M280.986 260.314C281.175 260.314 281.329 261.192 281.329 262.298C281.329 263.404 281.175 264.278 280.986 264.278C280.798 264.278 280.64 263.4 280.64 262.298C280.64 261.196 280.793 260.314 280.986 260.314Z" fill="#E1E1E1"/>
<path d="M280.986 252.381C281.175 252.381 281.329 253.259 281.329 254.361C281.329 255.463 281.175 256.345 280.986 256.345C280.798 256.345 280.64 255.467 280.64 254.361C280.64 253.255 280.793 252.381 280.986 252.381Z" fill="#E1E1E1"/>
<path d="M280.986 244.448C281.175 244.448 281.329 245.326 281.329 246.428C281.329 247.53 281.175 248.413 280.986 248.413C280.798 248.413 280.64 247.535 280.64 246.428C280.64 245.322 280.793 244.448 280.986 244.448Z" fill="#E1E1E1"/>
<path d="M280.986 236.511C281.175 236.511 281.329 237.389 281.329 238.496C281.329 239.602 281.175 240.48 280.986 240.48C280.798 240.48 280.64 239.602 280.64 238.496C280.64 237.389 280.793 236.511 280.986 236.511Z" fill="#E1E1E1"/>
<path d="M280.986 228.578C281.175 228.578 281.329 229.457 281.329 230.563C281.329 231.669 281.175 232.547 280.986 232.547C280.798 232.547 280.64 231.669 280.64 230.563C280.64 229.457 280.793 228.578 280.986 228.578Z" fill="#E1E1E1"/>
<path d="M281.579 221.243C281.579 221.335 281.351 221.423 280.986 221.484L281.232 221.243C281.302 221.702 281.334 222.166 281.329 222.63C281.329 223.728 281.175 224.614 280.986 224.614C280.798 224.614 280.639 223.736 280.639 222.63C280.635 222.166 280.669 221.702 280.74 221.243L280.789 220.962L280.986 220.997C281.351 221.058 281.579 221.146 281.579 221.243Z" fill="#E1E1E1"/>
<path d="M289.512 221.243C289.512 221.432 288.634 221.585 287.528 221.585C286.421 221.585 285.548 221.432 285.548 221.243C285.548 221.054 286.426 220.896 287.528 220.896C288.629 220.896 289.512 221.05 289.512 221.243Z" fill="#E1E1E1"/>
<path d="M297.444 221.243C297.444 221.432 296.566 221.585 295.464 221.585C294.363 221.585 293.48 221.432 293.48 221.243C293.48 221.054 294.358 220.896 295.464 220.896C296.571 220.896 297.444 221.05 297.444 221.243Z" fill="#E1E1E1"/>
<path d="M305.377 221.243C305.377 221.432 304.499 221.585 303.397 221.585C302.295 221.585 301.413 221.432 301.413 221.243C301.413 221.054 302.291 220.896 303.397 220.896C304.504 220.896 305.377 221.05 305.377 221.243Z" fill="#E1E1E1"/>
<path d="M313.31 221.243C313.31 221.432 312.432 221.585 311.33 221.585C310.228 221.585 309.346 221.432 309.346 221.243C309.346 221.054 310.224 220.896 311.33 220.896C312.436 220.896 313.31 221.05 313.31 221.243Z" fill="#E1E1E1"/>
<path d="M321.247 221.243C321.247 221.432 320.369 221.585 319.263 221.585C318.156 221.585 317.278 221.432 317.278 221.243C317.278 221.054 318.156 220.896 319.263 220.896C320.369 220.896 321.247 221.05 321.247 221.243Z" fill="#E1E1E1"/>
<path d="M327.195 221.585C328.291 221.585 329.18 221.432 329.18 221.243C329.18 221.054 328.291 220.9 327.195 220.9C326.1 220.9 325.211 221.054 325.211 221.243C325.211 221.432 326.1 221.585 327.195 221.585Z" fill="#E1E1E1"/>
<path d="M337.112 221.243C337.112 221.432 336.234 221.585 335.128 221.585C334.022 221.585 333.144 221.432 333.144 221.243C333.144 221.054 334.022 220.896 335.128 220.896C336.234 220.896 337.112 221.05 337.112 221.243Z" fill="#E1E1E1"/>
<path d="M345.054 221.243C345.054 221.432 344.176 221.585 343.07 221.585C341.963 221.585 341.085 221.432 341.085 221.243C341.085 221.054 341.963 220.896 343.07 220.896C344.176 220.896 345.054 221.05 345.054 221.243Z" fill="#E1E1E1"/>
<path d="M352.978 221.243C352.978 221.432 352.1 221.585 350.994 221.585C349.887 221.585 349.005 221.454 349.005 221.243C349.005 221.032 349.883 220.896 350.985 220.896C352.087 220.896 352.978 221.05 352.978 221.243Z" fill="#E1E1E1"/>
<path d="M360.911 221.243C360.911 221.432 360.033 221.585 358.931 221.585C357.829 221.585 356.947 221.432 356.947 221.243C356.947 221.054 357.825 220.896 358.931 220.896C360.037 220.896 360.911 221.05 360.911 221.243Z" fill="#E1E1E1"/>
<path d="M368.843 221.243C368.843 221.432 367.965 221.585 366.863 221.585C365.762 221.585 364.879 221.432 364.879 221.243C364.879 221.054 365.757 220.896 366.863 220.896C367.97 220.896 368.843 221.05 368.843 221.243Z" fill="#E1E1E1"/>
<path d="M376.781 221.243C376.781 221.432 375.903 221.585 374.796 221.585C373.69 221.585 372.812 221.432 372.812 221.243C372.812 221.054 373.69 220.896 374.796 220.896C375.903 220.896 376.781 221.05 376.781 221.243Z" fill="#E1E1E1"/>
<path d="M377.869 228.082C377.681 228.082 377.527 227.204 377.527 226.098C377.527 224.992 377.681 224.114 377.869 224.114C378.058 224.114 378.216 224.992 378.216 226.098C378.216 227.204 378.062 228.082 377.869 228.082Z" fill="#E1E1E1"/>
<path d="M377.869 236.015C377.681 236.015 377.527 235.137 377.527 234.031C377.527 232.925 377.681 232.047 377.869 232.047C378.058 232.047 378.216 232.925 378.216 234.031C378.216 235.137 378.062 236.015 377.869 236.015Z" fill="#E1E1E1"/>
<path d="M377.869 243.948C377.681 243.948 377.527 243.07 377.527 241.964C377.527 240.857 377.681 239.984 377.869 239.984C378.058 239.984 378.216 240.862 378.216 241.964C378.216 243.066 378.062 243.948 377.869 243.948Z" fill="#E1E1E1"/>
<path d="M377.869 251.881C377.681 251.881 377.527 251.003 377.527 249.901C377.527 248.799 377.681 247.917 377.869 247.917C378.058 247.917 378.216 248.794 378.216 249.901C378.216 251.007 378.062 251.881 377.869 251.881Z" fill="#E1E1E1"/>
<path d="M377.869 259.813C377.681 259.813 377.527 258.935 377.527 257.833C377.527 256.732 377.681 255.849 377.869 255.849C378.058 255.849 378.216 256.727 378.216 257.833C378.216 258.94 378.062 259.813 377.869 259.813Z" fill="#E1E1E1"/>
<path d="M377.869 267.75C377.681 267.75 377.527 266.872 377.527 265.766C377.527 264.66 377.681 263.782 377.869 263.782C378.058 263.782 378.216 264.66 378.216 265.766C378.216 266.872 378.062 267.75 377.869 267.75Z" fill="#E1E1E1"/>
<path d="M377.869 275.683C377.681 275.683 377.527 274.805 377.527 273.699C377.527 272.593 377.681 271.715 377.869 271.715C378.058 271.715 378.216 272.593 378.216 273.699C378.216 274.805 378.062 275.683 377.869 275.683Z" fill="#E1E1E1"/>
<path d="M377.869 283.616C377.681 283.616 377.527 282.738 377.527 281.632C377.527 280.525 377.681 279.647 377.869 279.647C378.058 279.647 378.216 280.525 378.216 281.632C378.216 282.738 378.062 283.616 377.869 283.616Z" fill="#E1E1E1"/>
<path d="M377.869 291.549C377.681 291.549 377.527 290.671 377.527 289.564C377.527 288.458 377.681 287.58 377.869 287.58C378.058 287.58 378.216 288.458 378.216 289.564C378.216 290.671 378.062 291.549 377.869 291.549Z" fill="#E1E1E1"/>
<path d="M377.869 299.481C377.681 299.481 377.527 298.603 377.527 297.497C377.527 296.391 377.681 295.517 377.869 295.517C378.058 295.517 378.216 296.395 378.216 297.497C378.216 298.599 378.062 299.481 377.869 299.481Z" fill="#E1E1E1"/>
<path d="M377.869 307.414C377.681 307.414 377.527 306.536 377.527 305.43C377.527 304.324 377.681 303.45 377.869 303.45C378.058 303.45 378.216 304.328 378.216 305.43C378.216 306.532 378.062 307.414 377.869 307.414Z" fill="#E1E1E1"/>
<path d="M377.869 315.347C377.681 315.347 377.527 314.469 377.527 313.367C377.527 312.265 377.681 311.383 377.869 311.383C378.058 311.383 378.216 312.261 378.216 313.367C378.216 314.473 378.062 315.347 377.869 315.347Z" fill="#E1E1E1"/>
<path d="M381.46 313.556H374.283V320.733H381.46V313.556Z" fill="#E1E1E1"/>
<path d="M284.573 314.539H277.396V321.712H284.573V314.539Z" fill="#E1E1E1"/>
<path d="M381.46 216.954H374.283V224.131H381.46V216.954Z" fill="#E1E1E1"/>
<path d="M284.573 217.652H277.396V224.829H284.573V217.652Z" fill="#E1E1E1"/>
<path d="M179.389 51.6659H40.287V144.804H179.389V51.6659Z" fill="white"/>
<path d="M179.389 144.8C179.389 144.8 179.389 144.22 179.367 143.105C179.345 141.99 179.367 140.344 179.345 138.193C179.345 133.882 179.318 127.56 179.296 119.461C179.27 103.279 179.235 80.0209 179.191 51.6659L179.389 51.8635L40.3002 51.9118L40.5504 51.6659C40.5504 84.8455 40.5504 116.396 40.5285 144.8L40.3002 144.572L140.515 144.686L169.147 144.747L176.763 144.773H178.726H179.402C179.402 144.773 179.187 144.773 178.756 144.773H176.816L169.243 144.804L140.664 144.866L40.3002 144.975H40.0719V144.747C40.0719 116.344 40.0719 84.7929 40.0719 51.6132V51.363H40.3309L179.419 51.4113H179.621V51.6132C179.551 80.0956 179.511 103.363 179.485 119.606C179.463 127.683 179.446 133.996 179.432 138.294C179.432 140.427 179.432 142.06 179.41 143.171C179.389 144.282 179.389 144.8 179.389 144.8Z" fill="#E1E1E1"/>
<path d="M40.287 59.9762C40.287 59.8401 71.4033 59.726 109.776 59.726C148.149 59.726 179.274 59.8401 179.274 59.9762C179.274 60.1123 148.167 60.2264 109.776 60.2264C71.3857 60.2264 40.287 60.1123 40.287 59.9762Z" fill="#E1E1E1"/>
<g opacity="0.3">
<path opacity="0.3" d="M45.7746 55.7837C45.7746 56.0042 45.7092 56.2198 45.5866 56.4032C45.4641 56.5866 45.29 56.7295 45.0862 56.8139C44.8825 56.8983 44.6583 56.9204 44.442 56.8773C44.2257 56.8343 44.027 56.7281 43.871 56.5722C43.7151 56.4162 43.6089 56.2175 43.5659 56.0012C43.5228 55.7849 43.5449 55.5607 43.6293 55.357C43.7137 55.1532 43.8566 54.9791 44.04 54.8566C44.2234 54.734 44.439 54.6686 44.6595 54.6686C44.9552 54.6686 45.2388 54.7861 45.448 54.9952C45.6571 55.2043 45.7746 55.488 45.7746 55.7837Z" fill="#E1E1E1"/>
</g>
<g opacity="0.3">
<path opacity="0.3" d="M49.6069 55.7837C49.6069 56.0042 49.5416 56.2198 49.419 56.4032C49.2965 56.5866 49.1224 56.7295 48.9186 56.8139C48.7149 56.8983 48.4907 56.9204 48.2744 56.8773C48.0581 56.8343 47.8594 56.7281 47.7034 56.5722C47.5475 56.4162 47.4413 56.2175 47.3983 56.0012C47.3552 55.7849 47.3773 55.5607 47.4617 55.357C47.5461 55.1532 47.689 54.9791 47.8724 54.8566C48.0558 54.734 48.2714 54.6686 48.4919 54.6686C48.7876 54.6686 49.0712 54.7861 49.2804 54.9952C49.4895 55.2043 49.6069 55.488 49.6069 55.7837Z" fill="#E1E1E1"/>
</g>
<g opacity="0.3">
<path opacity="0.3" d="M53.3605 55.7837C53.3605 56.0042 53.2951 56.2198 53.1726 56.4032C53.05 56.5866 52.8759 56.7295 52.6721 56.8139C52.4684 56.8983 52.2442 56.9204 52.0279 56.8773C51.8116 56.8343 51.6129 56.7281 51.457 56.5722C51.301 56.4162 51.1948 56.2175 51.1518 56.0012C51.1088 55.7849 51.1309 55.5607 51.2153 55.357C51.2996 55.1532 51.4426 54.9791 51.6259 54.8566C51.8093 54.734 52.0249 54.6686 52.2454 54.6686C52.5412 54.6686 52.8248 54.7861 53.0339 54.9952C53.243 55.2043 53.3605 55.488 53.3605 55.7837Z" fill="#E1E1E1"/>
</g>
<path d="M89.3496 69.6869H52.2454V106.791H89.3496V69.6869Z" fill="#E1E1E1"/>
<path d="M160.314 80.1745C160.314 80.315 145.827 80.4248 127.995 80.4248C110.163 80.4248 95.6713 80.315 95.6713 80.1745C95.6713 80.0341 110.158 79.9287 127.995 79.9287C145.831 79.9287 160.314 80.0385 160.314 80.1745Z" fill="#E1E1E1"/>
<path d="M160.314 87.0713C160.314 87.2074 145.827 87.3215 127.995 87.3215C110.163 87.3215 95.6713 87.2074 95.6713 87.0713C95.6713 86.9352 110.158 86.821 127.995 86.821C145.831 86.821 160.314 86.9352 160.314 87.0713Z" fill="#E1E1E1"/>
<path d="M160.314 93.9679C160.314 94.104 145.827 94.2182 127.995 94.2182C110.163 94.2182 95.6713 94.104 95.6713 93.9679C95.6713 93.8319 110.158 93.7177 127.995 93.7177C145.831 93.7177 160.314 93.8275 160.314 93.9679Z" fill="#E1E1E1"/>
<path d="M133.895 100.86C133.399 100.939 132.896 100.972 132.394 100.961L128.298 101.04C124.843 101.084 120.067 101.11 114.794 101.11C109.522 101.11 104.741 101.084 101.286 101.04L97.1902 100.961C96.6878 100.972 96.1853 100.939 95.6888 100.86C96.1859 100.788 96.688 100.756 97.1902 100.764L101.286 100.685C104.741 100.641 109.517 100.614 114.794 100.614C120.071 100.614 124.843 100.641 128.298 100.685L132.394 100.764C132.896 100.756 133.398 100.788 133.895 100.86Z" fill="#E1E1E1"/>
<path d="M72.0047 119.303H54.5676V136.74H72.0047V119.303Z" fill="#E1E1E1"/>
<path d="M103.63 119.303H86.1932V136.74H103.63V119.303Z" fill="#E1E1E1"/>
<path d="M135.251 119.303H117.814V136.74H135.251V119.303Z" fill="#E1E1E1"/>
<path d="M166.877 119.303H149.44V136.74H166.877V119.303Z" fill="#E1E1E1"/>
<path d="M8.6571 193.16H114.346V346.402H9.37706L8.6571 193.16Z" fill="#E1E1E1"/>
<path d="M0.728706 345.682H105.457L105.457 193.88H0.728706L0.728706 345.682Z" fill="white"/>
<path d="M106.177 193.16V346.402H0V193.16H106.177ZM104.737 344.962V194.6H1.4487V344.962H104.737Z" fill="#E1E1E1"/>
<path d="M92.449 210.32H13.7407V329.241H92.449V210.32Z" fill="white"/>
<path d="M13.7407 210.321C13.7407 210.321 13.7407 210.527 13.7407 210.909C13.7407 211.291 13.7407 211.87 13.7407 212.599C13.7407 214.105 13.7407 216.295 13.7802 219.131C13.7802 224.838 13.8329 233.149 13.8724 243.636C13.9163 264.607 13.9734 294.292 14.0436 329.241L13.7012 328.899L92.3964 328.868L92.0232 329.241C92.0496 284.38 92.0759 243.022 92.0978 210.321L92.3964 210.619L35.1815 210.479L19.3424 210.4L15.185 210.369C14.2412 210.369 13.7407 210.334 13.7407 210.334C13.7407 210.334 14.1797 210.334 15.1192 210.303L19.2238 210.268L34.9927 210.193L92.4446 210.04H92.7432V210.338C92.7651 243.039 92.7915 284.397 92.8222 329.259V329.632H92.4359L13.7407 329.584H13.3939V329.241C13.4642 294.2 13.5212 264.436 13.5651 243.412C13.6046 232.955 13.6354 224.676 13.6573 218.982C13.6573 216.177 13.688 214.013 13.6968 212.52C13.6968 211.809 13.6968 211.26 13.6968 210.869C13.6968 210.479 13.7407 210.321 13.7407 210.321Z" fill="#E1E1E1"/>
<path d="M0.439051 345.691C0.355641 345.629 1.00536 344.633 2.1292 343.083C3.25304 341.533 4.83783 339.413 6.66846 337.13C8.49909 334.847 10.2244 332.837 11.4975 331.423C12.7706 330.009 13.6442 329.184 13.7232 329.228C13.8812 329.369 10.8697 333.017 7.23038 337.569C3.59107 342.121 0.60587 345.818 0.439051 345.691Z" fill="#E1E1E1"/>
<path d="M0.728697 193.88C0.891127 193.753 3.9334 197.33 7.52881 201.87C11.1242 206.409 13.9031 210.211 13.7407 210.321C13.5782 210.43 10.536 206.874 6.94055 202.335C3.34514 197.796 0.566267 194.007 0.728697 193.88Z" fill="#E1E1E1"/>
<path d="M105.474 194.003L91.751 210.918L105.474 194.003Z" fill="white"/>
<path d="M91.751 210.918C91.5886 210.786 94.5299 206.892 98.336 202.221C102.142 197.55 105.325 193.88 105.487 193.994C105.65 194.108 102.704 198.015 98.9024 202.691C95.1006 207.366 91.9135 211.058 91.751 210.918Z" fill="#E1E1E1"/>
<path d="M105.457 345.691C105.294 345.818 102.283 342.28 98.7267 337.789C95.1708 333.298 92.4227 329.544 92.5807 329.417C92.7387 329.29 95.7591 332.828 99.3106 337.319C102.862 341.81 105.619 345.554 105.457 345.691Z" fill="#E1E1E1"/>
<path d="M58.1676 271.5H44.3391L42.6928 275.314C42.2217 276.303 41.9459 277.373 41.8807 278.466C41.8531 278.954 41.9617 279.44 42.1943 279.869C42.4268 280.299 42.7742 280.655 43.1977 280.899C43.7201 281.206 44.9976 281.434 47.0433 281.592V282.659H34.005V281.597C35.3279 281.425 36.552 280.805 37.4731 279.841C38.3774 278.889 39.4954 276.918 40.8271 273.927L54.8487 242.644H55.4019L69.5377 274.796C70.8839 277.867 71.9961 279.789 72.8741 280.565C73.655 281.215 74.6325 281.583 75.6485 281.61V282.676H56.6618V281.597H57.4432C58.9665 281.597 60.0377 281.381 60.6523 280.96C60.8595 280.811 61.0262 280.612 61.1374 280.382C61.2485 280.152 61.3006 279.898 61.2889 279.643C61.2861 279.279 61.2284 278.918 61.1176 278.572C61.0781 278.396 60.7884 277.694 60.2396 276.403L58.1676 271.5ZM57.1842 269.357L51.3631 255.876L45.3444 269.375L57.1842 269.357Z" fill="#E1E1E1"/>
<path d="M220.185 60.3405C220.575 60.2048 220.99 60.1568 221.401 60.2001H221.809L221.677 60.3318C221.677 59.862 221.748 59.5284 221.809 59.5284C221.871 59.5284 221.923 59.862 221.941 60.3318V60.4635H221.805H221.396C220.729 60.4942 220.185 60.4283 220.185 60.3405Z" fill="#E1E1E1"/>
<path d="M216.941 60.3406C216.941 60.2659 217.305 60.2001 217.753 60.2001C218.201 60.2001 218.565 60.2659 218.565 60.3406C218.565 60.4152 218.201 60.4854 217.753 60.4854C217.305 60.4854 216.941 60.4284 216.941 60.3406Z" fill="#E1E1E1"/>
<path d="M213.696 60.3406C213.696 60.2659 214.061 60.2001 214.509 60.2001C214.956 60.2001 215.321 60.2659 215.321 60.3406C215.321 60.4152 214.956 60.4854 214.509 60.4854C214.061 60.4854 213.696 60.4284 213.696 60.3406Z" fill="#E1E1E1"/>
<path d="M210.452 60.3406C210.452 60.2659 210.817 60.2001 211.264 60.2001C211.712 60.2001 212.076 60.2659 212.076 60.3406C212.076 60.4152 211.712 60.4854 211.264 60.4854C210.817 60.4854 210.452 60.4284 210.452 60.3406Z" fill="#E1E1E1"/>
<path d="M207.208 60.3406C207.208 60.2659 207.572 60.2001 208.02 60.2001C208.468 60.2001 208.828 60.2659 208.828 60.3406C208.828 60.4152 208.468 60.4854 208.02 60.4854C207.572 60.4854 207.208 60.4284 207.208 60.3406Z" fill="#E1E1E1"/>
<path d="M203.964 60.3406C203.964 60.2659 204.324 60.2001 204.772 60.2001C205.219 60.2001 205.584 60.2659 205.584 60.3406C205.584 60.4152 205.224 60.4854 204.772 60.4854C204.319 60.4854 203.964 60.4284 203.964 60.3406Z" fill="#E1E1E1"/>
<path d="M200.72 60.3406C200.72 60.2659 201.08 60.2001 201.527 60.2001C201.975 60.2001 202.339 60.2659 202.339 60.3406C202.339 60.4152 201.975 60.4854 201.527 60.4854C201.08 60.4854 200.72 60.4284 200.72 60.3406Z" fill="#E1E1E1"/>
<path d="M197.471 60.3406C197.471 60.2659 197.835 60.2001 198.283 60.2001C198.731 60.2001 199.095 60.2659 199.095 60.3406C199.095 60.4152 198.731 60.4854 198.283 60.4854C197.835 60.4854 197.471 60.4284 197.471 60.3406Z" fill="#E1E1E1"/>
<path d="M194.227 60.3406C194.227 60.2659 194.591 60.2001 195.039 60.2001C195.487 60.2001 195.851 60.2659 195.851 60.3406C195.851 60.4152 195.487 60.4854 195.039 60.4854C194.591 60.4854 194.227 60.4284 194.227 60.3406Z" fill="#E1E1E1"/>
<path d="M190.965 60.3406C190.965 60.2659 191.329 60.2001 191.777 60.2001C192.225 60.2001 192.589 60.2659 192.589 60.3406C192.589 60.4152 192.225 60.4854 191.777 60.4854C191.329 60.4854 190.965 60.4284 190.965 60.3406Z" fill="#E1E1E1"/>
<path d="M187.738 60.3406C187.738 60.2659 188.103 60.2001 188.551 60.2001C188.998 60.2001 189.363 60.2659 189.363 60.3406C189.363 60.4152 188.998 60.4854 188.551 60.4854C188.103 60.4854 187.738 60.4284 187.738 60.3406Z" fill="#E1E1E1"/>
<path d="M184.494 60.3406C184.494 60.2659 184.858 60.2001 185.306 60.2001C185.754 60.2001 186.114 60.2659 186.114 60.3406C186.114 60.4152 185.754 60.4854 185.306 60.4854C184.858 60.4854 184.494 60.4284 184.494 60.3406Z" fill="#E1E1E1"/>
<path d="M181.25 60.3406C181.25 60.2659 181.614 60.2001 182.062 60.2001C182.51 60.2001 182.87 60.2659 182.87 60.3406C182.87 60.4152 182.51 60.4854 182.062 60.4854C181.614 60.4854 181.25 60.4284 181.25 60.3406Z" fill="#E1E1E1"/>
<path d="M178.006 60.3406C178.006 60.2659 178.366 60.2001 178.813 60.2001C179.261 60.2001 179.626 60.2659 179.626 60.3406C179.626 60.4152 179.266 60.4854 178.813 60.4854C178.361 60.4854 178.006 60.4284 178.006 60.3406Z" fill="#E1E1E1"/>
<path d="M174.761 60.3406C174.761 60.2659 175.121 60.2001 175.569 60.2001C176.017 60.2001 176.381 60.2659 176.381 60.3406C176.381 60.4152 176.017 60.4854 175.569 60.4854C175.121 60.4854 174.761 60.4284 174.761 60.3406Z" fill="#E1E1E1"/>
<path d="M171.513 60.3406C171.513 60.2659 171.877 60.2001 172.325 60.2001C172.773 60.2001 173.137 60.2659 173.137 60.3406C173.137 60.4152 172.773 60.4854 172.325 60.4854C171.877 60.4854 171.513 60.4284 171.513 60.3406Z" fill="#E1E1E1"/>
<path d="M168.269 60.3406C168.269 60.2659 168.633 60.2001 169.081 60.2001C169.529 60.2001 169.893 60.2659 169.893 60.3406C169.893 60.4152 169.529 60.4854 169.081 60.4854C168.633 60.4854 168.269 60.4284 168.269 60.3406Z" fill="#E1E1E1"/>
<path d="M165.025 60.3406C165.025 60.2659 165.389 60.2001 165.837 60.2001C166.284 60.2001 166.649 60.2659 166.649 60.3406C166.649 60.4152 166.284 60.4854 165.837 60.4854C165.389 60.4854 165.025 60.4284 165.025 60.3406Z" fill="#E1E1E1"/>
<path d="M164.01 58.1192C164.089 58.1192 164.155 58.4836 164.155 58.9313C164.155 59.3791 164.089 59.7435 164.01 59.7435C163.931 59.7435 163.87 59.3791 163.87 58.9313C163.87 58.4836 163.936 58.1192 164.01 58.1192Z" fill="#E1E1E1"/>
<path d="M164.01 54.875C164.089 54.875 164.155 55.2394 164.155 55.6871C164.155 56.1349 164.089 56.4949 164.01 56.4949C163.931 56.4949 163.87 56.1349 163.87 55.6871C163.87 55.2394 163.936 54.875 164.01 54.875Z" fill="#E1E1E1"/>
<path d="M164.01 51.6308C164.089 51.6308 164.155 51.9908 164.155 52.4429C164.155 52.8951 164.089 53.2507 164.01 53.2507C163.931 53.2507 163.87 52.8907 163.87 52.4429C163.87 51.9952 163.936 51.6308 164.01 51.6308Z" fill="#E1E1E1"/>
<path d="M164.01 48.3866C164.089 48.3866 164.155 48.7465 164.155 49.1943C164.155 49.6421 164.089 50.0065 164.01 50.0065C163.931 50.0065 163.87 49.6421 163.87 49.1943C163.87 48.7465 163.936 48.3866 164.01 48.3866Z" fill="#E1E1E1"/>
<path d="M164.01 45.138C164.089 45.138 164.155 45.5023 164.155 45.9501C164.155 46.3979 164.089 46.7623 164.01 46.7623C163.931 46.7623 163.87 46.3979 163.87 45.9501C163.87 45.5023 163.936 45.138 164.01 45.138Z" fill="#E1E1E1"/>
<path d="M164.01 41.9026C164.089 41.9026 164.155 42.2669 164.155 42.7147C164.155 43.1625 164.089 43.5269 164.01 43.5269C163.931 43.5269 163.87 43.1625 163.87 42.7147C163.87 42.2669 163.936 41.9026 164.01 41.9026Z" fill="#E1E1E1"/>
<path d="M164.01 38.6496C164.089 38.6496 164.155 39.0139 164.155 39.4617C164.155 39.9095 164.089 40.2739 164.01 40.2739C163.931 40.2739 163.87 39.9095 163.87 39.4617C163.87 39.0139 163.936 38.6496 164.01 38.6496Z" fill="#E1E1E1"/>
<path d="M164.01 35.4053C164.089 35.4053 164.155 35.7697 164.155 36.2175C164.155 36.6653 164.089 37.0296 164.01 37.0296C163.931 37.0296 163.87 36.6653 163.87 36.2175C163.87 35.7697 163.936 35.4053 164.01 35.4053Z" fill="#E1E1E1"/>
<path d="M164.01 32.1611C164.089 32.1611 164.155 32.5255 164.155 32.9733C164.155 33.4211 164.089 33.781 164.01 33.781C163.931 33.781 163.87 33.4211 163.87 32.9733C163.87 32.5255 163.936 32.1611 164.01 32.1611Z" fill="#E1E1E1"/>
<path d="M164.01 28.9169C164.089 28.9169 164.155 29.2813 164.155 29.7291C164.155 30.1769 164.089 30.5368 164.01 30.5368C163.931 30.5368 163.87 30.1769 163.87 29.7291C163.87 29.2813 163.936 28.9169 164.01 28.9169Z" fill="#E1E1E1"/>
<path d="M164.01 25.6595C164.089 25.6595 164.155 26.0195 164.155 26.4673C164.155 26.9151 164.089 27.2795 164.01 27.2795C163.931 27.2795 163.87 26.9151 163.87 26.4673C163.87 26.0195 163.936 25.6595 164.01 25.6595Z" fill="#E1E1E1"/>
<path d="M164.01 22.4285C164.089 22.4285 164.155 22.7885 164.155 23.2363C164.155 23.684 164.089 24.0484 164.01 24.0484C163.931 24.0484 163.87 23.684 163.87 23.2363C163.87 22.7885 163.936 22.4285 164.01 22.4285Z" fill="#E1E1E1"/>
<path d="M164.01 19.1799C164.089 19.1799 164.155 19.5443 164.155 19.9921C164.155 20.4398 164.089 20.8042 164.01 20.8042C163.931 20.8042 163.87 20.4398 163.87 19.9921C163.87 19.5443 163.936 19.1799 164.01 19.1799Z" fill="#E1E1E1"/>
<path d="M164.01 15.9357C164.089 15.9357 164.155 16.3001 164.155 16.7478C164.155 17.1956 164.089 17.56 164.01 17.56C163.931 17.56 163.87 17.1956 163.87 16.7478C163.87 16.3001 163.936 15.9357 164.01 15.9357Z" fill="#E1E1E1"/>
<path d="M164.01 12.6915C164.089 12.6915 164.155 13.0558 164.155 13.5036C164.155 13.9514 164.089 14.3158 164.01 14.3158C163.931 14.3158 163.87 13.9514 163.87 13.5036C163.87 13.0558 163.936 12.6915 164.01 12.6915Z" fill="#E1E1E1"/>
<path d="M164.01 9.44727C164.089 9.44727 164.155 9.81163 164.155 10.2594C164.155 10.7072 164.089 11.0716 164.01 11.0716C163.931 11.0716 163.87 10.7072 163.87 10.2594C163.87 9.81163 163.936 9.44727 164.01 9.44727Z" fill="#E1E1E1"/>
<path d="M164.01 6.20306C164.089 6.20306 164.155 6.56743 164.155 7.01521C164.155 7.46299 164.089 7.82298 164.01 7.82298C163.931 7.82298 163.87 7.46299 163.87 7.01521C163.87 6.56743 163.936 6.20306 164.01 6.20306Z" fill="#E1E1E1"/>
<path d="M164.01 2.95886C164.089 2.95886 164.155 3.31884 164.155 3.77101C164.155 4.22318 164.089 4.58755 164.01 4.58755C163.931 4.58755 163.87 4.22757 163.87 3.77979C163.87 3.33201 163.936 2.95886 164.01 2.95886Z" fill="#E1E1E1"/>
<path d="M166.855 2.55497C166.855 2.63399 166.491 2.69545 166.043 2.69545C165.595 2.69545 165.231 2.63399 165.231 2.55497C165.231 2.47595 165.595 2.41449 166.043 2.41449C166.491 2.41449 166.855 2.47595 166.855 2.55497Z" fill="#E1E1E1"/>
<path d="M170.099 2.55497C170.099 2.63399 169.735 2.69545 169.287 2.69545C168.839 2.69545 168.475 2.63399 168.475 2.55497C168.475 2.47595 168.839 2.41449 169.287 2.41449C169.735 2.41449 170.099 2.47595 170.099 2.55497Z" fill="#E1E1E1"/>
<path d="M173.344 2.55497C173.344 2.63399 172.979 2.69545 172.531 2.69545C172.084 2.69545 171.724 2.63399 171.724 2.55497C171.724 2.47595 172.084 2.41449 172.531 2.41449C172.979 2.41449 173.344 2.47595 173.344 2.55497Z" fill="#E1E1E1"/>
<path d="M176.588 2.55497C176.588 2.63399 176.228 2.69545 175.776 2.69545C175.323 2.69545 174.968 2.63399 174.968 2.55497C174.968 2.47595 175.328 2.41449 175.776 2.41449C176.223 2.41449 176.588 2.47595 176.588 2.55497Z" fill="#E1E1E1"/>
<path d="M179.832 2.55497C179.832 2.63399 179.472 2.69545 179.024 2.69545C178.576 2.69545 178.212 2.63399 178.212 2.55497C178.212 2.47595 178.576 2.41449 179.024 2.41449C179.472 2.41449 179.832 2.47595 179.832 2.55497Z" fill="#E1E1E1"/>
<path d="M183.063 2.55497C183.063 2.63399 182.699 2.69545 182.251 2.69545C181.803 2.69545 181.439 2.63399 181.439 2.55497C181.439 2.47595 181.803 2.41449 182.251 2.41449C182.699 2.41449 183.063 2.47595 183.063 2.55497Z" fill="#E1E1E1"/>
<path d="M186.325 2.55497C186.325 2.63399 185.96 2.69545 185.513 2.69545C185.065 2.69545 184.7 2.63399 184.7 2.55497C184.7 2.47595 185.065 2.41449 185.513 2.41449C185.96 2.41449 186.325 2.47595 186.325 2.55497Z" fill="#E1E1E1"/>
<path d="M189.569 2.55497C189.569 2.63399 189.205 2.69545 188.757 2.69545C188.309 2.69545 187.945 2.63399 187.945 2.55497C187.945 2.47595 188.309 2.41449 188.757 2.41449C189.205 2.41449 189.569 2.47595 189.569 2.55497Z" fill="#E1E1E1"/>
<path d="M192.813 2.55497C192.813 2.63399 192.449 2.69545 192.001 2.69545C191.553 2.69545 191.189 2.63399 191.189 2.55497C191.189 2.47595 191.553 2.41449 192.001 2.41449C192.449 2.41449 192.813 2.47595 192.813 2.55497Z" fill="#E1E1E1"/>
<path d="M196.057 2.55497C196.057 2.63399 195.693 2.69545 195.245 2.69545C194.797 2.69545 194.433 2.63399 194.433 2.55497C194.433 2.47595 194.797 2.41449 195.245 2.41449C195.693 2.41449 196.057 2.47595 196.057 2.55497Z" fill="#E1E1E1"/>
<path d="M199.306 2.55497C199.306 2.63399 198.942 2.69545 198.494 2.69545C198.046 2.69545 197.686 2.63399 197.686 2.55497C197.686 2.47595 198.046 2.41449 198.494 2.41449C198.942 2.41449 199.306 2.47595 199.306 2.55497Z" fill="#E1E1E1"/>
<path d="M202.546 2.55497C202.546 2.63399 202.186 2.69545 201.738 2.69545C201.29 2.69545 200.926 2.63399 200.926 2.55497C200.926 2.47595 201.286 2.41449 201.738 2.41449C202.19 2.41449 202.546 2.47595 202.546 2.55497Z" fill="#E1E1E1"/>
<path d="M205.79 2.55497C205.79 2.63399 205.43 2.69545 204.982 2.69545C204.534 2.69545 204.17 2.63399 204.17 2.55497C204.17 2.47595 204.534 2.41449 204.982 2.41449C205.43 2.41449 205.79 2.47595 205.79 2.55497Z" fill="#E1E1E1"/>
<path d="M209.039 2.55497C209.039 2.63399 208.674 2.69545 208.226 2.69545C207.779 2.69545 207.414 2.63399 207.414 2.55497C207.414 2.47595 207.779 2.41449 208.226 2.41449C208.674 2.41449 209.039 2.47595 209.039 2.55497Z" fill="#E1E1E1"/>
<path d="M212.283 2.55497C212.283 2.63399 211.919 2.69545 211.471 2.69545C211.023 2.69545 210.659 2.63399 210.659 2.55497C210.659 2.47595 211.023 2.41449 211.471 2.41449C211.919 2.41449 212.283 2.47595 212.283 2.55497Z" fill="#E1E1E1"/>
<path d="M215.549 2.55497C215.549 2.63399 215.185 2.69545 214.737 2.69545C214.289 2.69545 213.925 2.63399 213.925 2.55497C213.925 2.47595 214.289 2.41449 214.737 2.41449C215.185 2.41449 215.549 2.47595 215.549 2.55497Z" fill="#E1E1E1"/>
<path d="M218.771 2.55497C218.771 2.63399 218.407 2.69545 217.959 2.69545C217.511 2.69545 217.147 2.63399 217.147 2.55497C217.147 2.47595 217.511 2.41449 217.959 2.41449C218.407 2.41449 218.771 2.47595 218.771 2.55497Z" fill="#E1E1E1"/>
<path d="M221.809 2.76129C221.774 2.76129 221.739 2.68666 221.717 2.55496L221.809 2.64715C221.609 2.68256 221.406 2.69873 221.203 2.69544C220.764 2.69544 220.396 2.63398 220.396 2.55496C220.396 2.47594 220.756 2.41448 221.203 2.41448C221.406 2.41119 221.609 2.42736 221.809 2.46277L221.914 2.48472V2.55496C221.879 2.68666 221.844 2.76129 221.809 2.76129Z" fill="#E1E1E1"/>
<path d="M221.809 6.00553C221.73 6.00553 221.669 5.64555 221.669 5.19777C221.669 4.74999 221.73 4.38562 221.809 4.38562C221.888 4.38562 221.95 4.7456 221.95 5.19777C221.95 5.64994 221.888 6.00553 221.809 6.00553Z" fill="#E1E1E1"/>
<path d="M221.809 9.24973C221.73 9.24973 221.669 8.88975 221.669 8.44197C221.669 7.99419 221.73 7.62982 221.809 7.62982C221.888 7.62982 221.95 7.99419 221.95 8.44197C221.95 8.88975 221.888 9.24973 221.809 9.24973Z" fill="#E1E1E1"/>
<path d="M221.809 12.4896C221.73 12.4896 221.669 12.1252 221.669 11.6774C221.669 11.2296 221.73 10.8653 221.809 10.8653C221.888 10.8653 221.95 11.2296 221.95 11.6774C221.95 12.1252 221.888 12.4896 221.809 12.4896Z" fill="#E1E1E1"/>
<path d="M221.809 15.7425C221.73 15.7425 221.669 15.3782 221.669 14.9304C221.669 14.4826 221.73 14.1182 221.809 14.1182C221.888 14.1182 221.95 14.4826 221.95 14.9304C221.95 15.3782 221.888 15.7425 221.809 15.7425Z" fill="#E1E1E1"/>
<path d="M221.809 18.9868C221.73 18.9868 221.669 18.6224 221.669 18.1746C221.669 17.7268 221.73 17.3625 221.809 17.3625C221.888 17.3625 221.95 17.7268 221.95 18.1746C221.95 18.6224 221.888 18.9868 221.809 18.9868Z" fill="#E1E1E1"/>
<path d="M221.809 22.231C221.73 22.231 221.669 21.8666 221.669 21.4188C221.669 20.971 221.73 20.6067 221.809 20.6067C221.888 20.6067 221.95 20.971 221.95 21.4188C221.95 21.8666 221.888 22.231 221.809 22.231Z" fill="#E1E1E1"/>
<path d="M221.809 25.4752C221.73 25.4752 221.669 25.1108 221.669 24.663C221.669 24.2152 221.73 23.8553 221.809 23.8553C221.888 23.8553 221.95 24.2152 221.95 24.663C221.95 25.1108 221.888 25.4752 221.809 25.4752Z" fill="#E1E1E1"/>
<path d="M221.809 28.7325C221.73 28.7325 221.669 28.3682 221.669 27.9204C221.669 27.4726 221.73 27.1126 221.809 27.1126C221.888 27.1126 221.95 27.4726 221.95 27.9204C221.95 28.3682 221.888 28.7325 221.809 28.7325Z" fill="#E1E1E1"/>
<path d="M221.809 31.9636C221.73 31.9636 221.669 31.6036 221.669 31.1558C221.669 30.7081 221.73 30.3437 221.809 30.3437C221.888 30.3437 221.95 30.7037 221.95 31.1558C221.95 31.608 221.888 31.9636 221.809 31.9636Z" fill="#E1E1E1"/>
<path d="M221.809 35.2078C221.73 35.2078 221.669 34.8478 221.669 34.4C221.669 33.9523 221.73 33.5879 221.809 33.5879C221.888 33.5879 221.95 33.9523 221.95 34.4C221.95 34.8478 221.888 35.2078 221.809 35.2078Z" fill="#E1E1E1"/>
<path d="M221.809 38.4564C221.73 38.4564 221.669 38.092 221.669 37.6442C221.669 37.1965 221.73 36.8321 221.809 36.8321C221.888 36.8321 221.95 37.1965 221.95 37.6442C221.95 38.092 221.888 38.4564 221.809 38.4564Z" fill="#E1E1E1"/>
<path d="M221.809 41.7006C221.73 41.7006 221.669 41.3363 221.669 40.8885C221.669 40.4407 221.73 40.0763 221.809 40.0763C221.888 40.0763 221.95 40.4407 221.95 40.8885C221.95 41.3363 221.888 41.7006 221.809 41.7006Z" fill="#E1E1E1"/>
<path d="M221.809 44.9448C221.73 44.9448 221.669 44.5805 221.669 44.1327C221.669 43.6849 221.73 43.3205 221.809 43.3205C221.888 43.3205 221.95 43.6849 221.95 44.1327C221.95 44.5805 221.888 44.9448 221.809 44.9448Z" fill="#E1E1E1"/>
<path d="M221.809 48.189C221.73 48.189 221.669 47.8247 221.669 47.3769C221.669 46.9291 221.73 46.5647 221.809 46.5647C221.888 46.5647 221.95 46.9291 221.95 47.3769C221.95 47.8247 221.888 48.189 221.809 48.189Z" fill="#E1E1E1"/>
<path d="M221.809 51.4332C221.73 51.4332 221.669 51.0689 221.669 50.6211C221.669 50.1733 221.73 49.8133 221.809 49.8133C221.888 49.8133 221.95 50.1733 221.95 50.6211C221.95 51.0689 221.888 51.4332 221.809 51.4332Z" fill="#E1E1E1"/>
<path d="M221.809 54.6774C221.73 54.6774 221.669 54.3175 221.669 53.8653C221.669 53.4131 221.73 53.0575 221.809 53.0575C221.888 53.0575 221.95 53.4175 221.95 53.8653C221.95 54.3131 221.888 54.6774 221.809 54.6774Z" fill="#E1E1E1"/>
<path d="M221.809 57.9217C221.73 57.9217 221.669 57.5617 221.669 57.1139C221.669 56.6661 221.73 56.3018 221.809 56.3018C221.888 56.3018 221.95 56.6661 221.95 57.1139C221.95 57.5617 221.888 57.9217 221.809 57.9217Z" fill="#E1E1E1"/>
<path d="M223.947 57.6275H219.667V61.9078H223.947V57.6275Z" fill="#E1E1E1"/>
<path d="M166.153 58.2114H161.873V62.4916H166.153V58.2114Z" fill="#E1E1E1"/>
<path d="M223.947 0H219.667V4.28025H223.947V0Z" fill="#E1E1E1"/>
<path d="M166.153 0.412659H161.873V4.69291H166.153V0.412659Z" fill="#E1E1E1"/>
<path d="M249.251 48.4349H245.787L238.237 37.8989V30.9978C238.237 30.9978 232.885 30.6685 233.513 39.7163C234.141 48.7641 233.465 46.4594 233.465 46.4594C233.465 46.4594 222.103 46.5033 221.173 47.491C220.488 48.2066 220.176 59.4933 220.058 65.6129C219.996 68.6859 221.888 71.557 224.751 72.2857C225.15 72.3912 225.562 72.4457 225.975 72.4482C228.807 72.4482 243.285 70.1478 243.285 70.1478H249.264L249.251 48.4349Z" fill="#ECECEC"/>
<path d="M259.159 46.5384L257.03 70.2093H251.104V47.0125L259.159 46.5384Z" fill="#ECECEC"/>
<path d="M258.426 289.709C258.426 295.004 261.499 396.593 261.499 396.593L218.24 396.378L210.676 351.222L208.687 396.378H167.189L171.697 284.871L258.426 289.709Z" fill="#375A64"/>
<path d="M130.984 247.64L108.89 214.715L125.282 201.404L152.996 227.108C152.996 227.108 164.928 160.226 176.676 156.17L175.762 259.91C168.069 263.58 159.311 264.359 151.09 262.106C142.869 259.854 135.733 254.719 130.984 247.64Z" fill="#1A2E35"/>
<path d="M85.7499 92.5368L90.4516 156.662L167.421 304.201L211.914 278.431L136.064 134.237L85.7499 92.5368Z" fill="#FF4F5B"/>
<g opacity="0.7">
<path opacity="0.7" d="M136.823 134.532C135.616 136.788 132.209 137.455 130.238 135.822C130.801 138.145 130.623 140.586 129.728 142.802C128.834 145.018 127.268 146.899 125.25 148.18C123.233 149.461 120.865 150.078 118.479 149.945C116.092 149.812 113.808 148.935 111.945 147.438C111.638 149.778 110.716 151.995 109.274 153.862C107.832 155.73 105.92 157.182 103.734 158.07C101.547 158.958 99.1649 159.251 96.8286 158.919C94.4923 158.587 92.2858 157.641 90.4339 156.179L85.7673 92.5236L136.823 134.532Z" fill="white"/>
</g>
<path d="M87.642 118.324C87.642 118.324 98.0726 124.874 106.365 109.623L85.7323 92.5368L87.642 118.324Z" fill="#FF4F5B"/>
<path d="M184.38 292.133C184.248 292.198 167.882 259.906 147.833 220.009C127.784 180.113 111.633 147.71 111.765 147.644C111.897 147.579 128.258 179.863 148.312 219.772C168.365 259.682 184.512 292.084 184.38 292.133Z" fill="white"/>
<path d="M202.879 281.079C202.748 281.144 186.382 248.852 166.333 208.96C146.284 169.068 130.133 136.656 130.264 136.59C130.396 136.525 146.758 168.809 166.82 208.723C186.882 248.636 203.011 281.013 202.879 281.079Z" fill="white"/>
<path d="M112.384 178.432L102.401 182.418L100.263 190.465L103.701 203.894L111.765 212.45L117.213 207.946L117.555 199.732L118.218 195.135C118.218 195.135 123.144 193.59 123.262 192.84C123.381 192.089 122.652 189.56 121.897 189.437C121.142 189.314 115.979 191.237 115.979 191.237C115.979 191.237 122.09 186.408 121.919 185.627C121.748 184.845 121.094 182.861 119.873 182.642C118.653 182.422 108.793 187.067 108.793 187.067L107.186 190.724L105.799 184.88C105.799 184.88 114.548 182.422 112.384 178.432Z" fill="#C78976"/>
<path d="M113.64 197.309C113.583 197.309 113.394 196.962 113.302 196.316C113.201 195.462 113.304 194.597 113.603 193.79C113.901 192.984 114.386 192.259 115.018 191.676C115.51 191.237 115.896 191.092 115.918 191.141C116.019 191.264 114.72 192.199 114.087 193.963C113.455 195.728 113.793 197.273 113.64 197.309Z" fill="#BF654E"/>
<path d="M108.898 195.553C109.081 194.683 109.213 193.803 109.293 192.919C109.334 191.935 109.502 190.961 109.794 190.021C109.988 189.447 110.302 188.92 110.716 188.476C111.18 188.023 111.735 187.672 112.344 187.449C114.733 186.571 116.884 185.886 118.455 185.377C120.027 184.867 121.01 184.6 121.032 184.665C121.054 184.731 120.115 185.131 118.578 185.719C117.042 186.307 114.882 187.08 112.538 187.914C111.994 188.111 111.496 188.417 111.076 188.814C110.706 189.204 110.422 189.668 110.242 190.175C109.941 191.074 109.743 192.005 109.653 192.949C109.46 194.639 108.964 195.601 108.898 195.553Z" fill="#BF654E"/>
<path d="M106.607 193.753C106.466 193.753 106.493 192.848 106.668 191.786C106.844 190.724 107.107 189.876 107.243 189.903C107.379 189.929 107.353 190.807 107.178 191.869C107.002 192.932 106.747 193.797 106.607 193.753Z" fill="#BF654E"/>
<path d="M241.59 136.977L232.841 134L200.131 141.512L197.229 143.913L179.911 304.201C187.348 311.87 210.79 313.393 224.101 311.124L241.59 136.977Z" fill="#FF4F5B"/>
<path d="M242.201 137.28L237.991 135.177C237.991 135.177 228.719 175.982 228.719 202.932C228.719 229.882 222.894 327.608 222.894 327.608L267.022 326.471V218.521L242.201 137.28Z" fill="#1A2E35"/>
<path d="M179.911 329.224L163.194 324.329L169.015 245.335L167.917 188.09L176.676 156.174L197.427 143.355C197.427 143.355 181.052 319.711 179.911 329.224Z" fill="#1A2E35"/>
<path d="M214.785 156.701C210.766 156.343 207.027 154.489 204.309 151.506C201.59 148.524 200.09 144.63 200.105 140.594L200.158 126.261C200.158 126.261 186.918 124.202 186.755 110.962C186.593 97.7214 188.884 67.3206 188.884 67.3206C196.411 64.0862 204.664 62.9197 212.792 63.9415C220.92 64.9633 228.628 68.1363 235.12 73.133L237.082 74.6432L232.284 141.81C232.13 143.943 231.552 146.024 230.586 147.932C229.619 149.839 228.283 151.536 226.654 152.922C225.026 154.308 223.137 155.356 221.1 156.004C219.062 156.653 216.915 156.89 214.785 156.701Z" fill="#C78976"/>
<path d="M200.136 126.068C200.136 126.068 208.503 126.752 217.397 121.164C217.397 121.164 213.319 130.69 200.105 129.505L200.136 126.068Z" fill="#BF654E"/>
<path d="M235.453 88.3575C235.677 88.261 244.549 85.6665 244.26 94.7186C243.97 103.771 234.944 101.611 234.935 101.352C234.926 101.093 235.453 88.3575 235.453 88.3575Z" fill="#C78976"/>
<path d="M237.811 98.0111C237.85 97.9848 237.964 98.1253 238.228 98.257C238.597 98.4297 239.019 98.4518 239.404 98.3185C240.37 97.998 241.226 96.5054 241.323 94.8767C241.369 94.1008 241.243 93.3242 240.954 92.6027C240.876 92.3178 240.731 92.0558 240.531 91.8388C240.331 91.6218 240.081 91.4562 239.804 91.3559C239.624 91.3025 239.431 91.3137 239.259 91.3874C239.086 91.4612 238.945 91.5929 238.86 91.7598C238.732 92.01 238.781 92.1988 238.732 92.1988C238.684 92.1988 238.544 92.0407 238.632 91.672C238.686 91.4478 238.818 91.2503 239.005 91.1145C239.131 91.0248 239.273 90.9608 239.424 90.9261C239.574 90.8915 239.73 90.8868 239.883 90.9125C240.581 90.9828 241.2 91.6456 241.485 92.37C241.847 93.1646 242.006 94.0362 241.95 94.9074C241.836 96.7293 240.848 98.4194 239.527 98.7443C239.282 98.8073 239.025 98.8144 238.777 98.765C238.528 98.7157 238.294 98.611 238.092 98.4589C237.819 98.2306 237.78 98.0243 237.811 98.0111Z" fill="#BF654E"/>
<path d="M193.226 87.6903C193.221 88.1832 193.409 88.6585 193.749 89.0152C194.089 89.3718 194.555 89.5816 195.048 89.5999C195.288 89.619 195.53 89.5898 195.759 89.5141C195.988 89.4383 196.199 89.3175 196.381 89.1588C196.563 89.0001 196.711 88.8067 196.816 88.5899C196.922 88.3731 196.984 88.1374 196.997 87.8966C197.004 87.4038 196.818 86.9278 196.478 86.5707C196.138 86.2137 195.672 86.0041 195.179 85.9869C194.939 85.9672 194.696 85.9959 194.467 86.0714C194.237 86.1469 194.025 86.2676 193.843 86.4263C193.661 86.5851 193.513 86.7787 193.407 86.9958C193.301 87.2129 193.239 87.449 193.226 87.6903Z" fill="#1A2E35"/>
<path d="M191.404 85.9474C191.637 86.1933 193.072 85.1309 195.105 85.1397C197.137 85.1484 198.617 86.1625 198.854 85.9123C198.959 85.8026 198.722 85.3548 198.072 84.8806C197.191 84.2729 196.144 83.9511 195.074 83.9588C194.016 83.953 192.983 84.2869 192.128 84.9114C191.487 85.3899 191.277 85.8333 191.404 85.9474Z" fill="#1A2E35"/>
<path d="M213.227 88.5507C213.223 89.0428 213.411 89.5171 213.751 89.8728C214.091 90.2285 214.557 90.4377 215.048 90.456C215.289 90.4751 215.531 90.4459 215.76 90.3701C215.989 90.2944 216.2 90.1736 216.382 90.0149C216.563 89.8562 216.711 89.6627 216.817 89.446C216.923 89.2292 216.984 88.9935 216.998 88.7526C217.003 88.2597 216.815 87.7844 216.475 87.4277C216.134 87.071 215.668 86.8612 215.176 86.843C214.935 86.8239 214.693 86.8532 214.464 86.9292C214.234 87.0052 214.023 87.1264 213.841 87.2856C213.659 87.4448 213.511 87.6387 213.406 87.856C213.3 88.0733 213.239 88.3095 213.227 88.5507Z" fill="#1A2E35"/>
<path d="M211.392 86.325C211.624 86.5708 213.06 85.5128 215.092 85.5172C217.125 85.5216 218.604 86.5401 218.837 86.2898C218.947 86.1801 218.71 85.7367 218.056 85.2626C217.176 84.652 216.128 84.3285 215.057 84.3363C213.999 84.3342 212.968 84.6677 212.112 85.2889C211.488 85.7674 211.278 86.2152 211.392 86.325Z" fill="#1A2E35"/>
<path d="M204.008 101.413C204.008 101.299 202.752 101.08 200.702 100.816C200.184 100.764 199.692 100.663 199.604 100.307C199.517 99.9515 199.697 99.3721 199.951 98.7662C200.437 97.5107 200.949 96.1937 201.488 94.8152C203.621 89.1829 205.167 84.5514 204.938 84.468C204.71 84.3846 202.818 88.8756 200.662 94.5079C200.149 95.8996 199.657 97.221 199.192 98.4897C198.994 99.0779 198.656 99.7496 198.92 100.527C198.998 100.712 199.118 100.877 199.27 101.008C199.423 101.14 199.603 101.235 199.798 101.286C200.084 101.365 200.379 101.406 200.676 101.409C202.717 101.519 203.999 101.528 204.008 101.413Z" fill="#1A2E35"/>
<path d="M210.865 78.3395C211.067 78.8927 213.099 78.6293 215.483 78.919C217.867 79.2088 219.803 79.8541 220.119 79.358C220.26 79.121 219.926 78.6029 219.144 78.0674C218.106 77.4103 216.931 76.9987 215.709 76.8641C214.487 76.7294 213.251 76.8752 212.094 77.2903C211.221 77.6547 210.777 78.0893 210.865 78.3395Z" fill="#1A2E35"/>
<path d="M192.137 80.056C192.497 80.5214 193.893 80.056 195.583 80.0165C197.273 79.977 198.696 80.3282 199.025 79.8453C199.17 79.6082 198.946 79.1473 198.323 78.7083C197.484 78.1854 196.51 77.9226 195.522 77.9531C194.535 77.9835 193.578 78.3059 192.774 78.8795C192.177 79.358 191.979 79.8321 192.137 80.056Z" fill="#1A2E35"/>
<path d="M182.435 58.9621C182.295 57.3202 182.905 55.5598 184.24 54.5721C185.574 53.5843 187.646 53.6941 188.731 54.9101C188.112 52.7151 189.916 50.1514 192.212 50.0021C194.367 49.866 196.211 51.4991 198.296 52.0698C200.382 52.6405 202.52 52.1444 204.477 51.3542C206.435 50.564 208.27 49.4797 210.255 48.7553C214.445 47.2235 219.071 47.4083 223.126 49.2696C227.18 51.1309 230.336 54.5181 231.906 58.6943C234.804 57.79 238.092 59.2606 239.878 61.7146C241.665 64.1686 242.122 67.3865 241.766 70.398C241.483 72.4293 240.975 74.4228 240.252 76.3421C240.252 76.5089 240.252 76.6757 240.252 76.8469C240.115 84.13 239.295 92.6773 236.186 92.7256C230.774 92.809 232.064 82.6286 232.064 82.6286C225.418 80.0604 227.894 70.1039 226.234 68.5806C224.575 67.0572 221.098 63.5628 207.186 70.6746C201.786 73.4315 194.604 73.3481 190.684 72.4569C190.57 72.4569 190.451 72.4174 190.337 72.3867H190.258C190.214 72.3867 190.184 72.3516 190.144 72.3384C188.882 72.0238 187.678 71.5127 186.575 70.8239C185.27 70.0778 184.24 68.933 183.634 67.5577C183.103 66.1661 183.3 64.4276 184.393 63.4135C183.32 62.1526 182.639 60.6052 182.435 58.9621Z" fill="#1A2E35"/>
<path d="M202.278 107.674C202.559 108.497 202.957 109.276 203.459 109.987C203.714 110.342 204.042 110.638 204.42 110.856C204.799 111.074 205.219 111.209 205.654 111.251C206.118 111.253 206.575 111.137 206.982 110.915C207.389 110.694 207.734 110.373 207.985 109.983C208.471 109.194 208.698 108.273 208.635 107.349C208.595 106.51 208.196 105.514 207.384 105.417C207.033 105.404 206.686 105.481 206.374 105.641L201.984 107.397" fill="#BF654E"/>
<path d="M204.025 111.265C204.025 111.128 205.004 111.519 206.352 110.979C207.115 110.68 207.74 110.109 208.108 109.377C208.319 108.932 208.433 108.448 208.442 107.956C208.452 107.464 208.358 106.976 208.165 106.523C208.068 106.29 207.941 106.07 207.788 105.869C207.612 105.685 207.647 105.694 207.458 105.724C207.269 105.755 206.993 105.904 206.756 105.997L206.04 106.291C205.105 106.668 204.258 106.997 203.542 107.265C202.116 107.801 201.207 108.082 201.167 107.981C201.128 107.88 201.953 107.423 203.327 106.76C204.012 106.427 204.837 106.045 205.759 105.628L206.466 105.312C206.725 105.188 206.99 105.078 207.261 104.982C207.474 104.918 207.702 104.926 207.91 105.004C208.1 105.088 208.266 105.218 208.393 105.382C208.59 105.637 208.754 105.916 208.881 106.212C209.121 106.77 209.233 107.375 209.211 107.982C209.188 108.59 209.03 109.185 208.749 109.724C208.281 110.586 207.493 111.229 206.554 111.515C205.942 111.711 205.288 111.737 204.662 111.589C204.21 111.458 204.008 111.308 204.025 111.265Z" fill="#1A2E35"/>
<path d="M226.686 67.3645C226.739 66.8317 226.739 66.295 226.686 65.7622C226.452 64.3196 225.72 63.0044 224.619 62.0439C223.302 60.7751 221.107 60.0157 218.657 60.0771C216.207 60.1386 213.604 60.9024 210.913 61.8068C209.598 62.2631 208.26 62.6514 206.905 62.9701C205.632 63.2505 204.336 63.4092 203.033 63.4443C200.826 63.4957 198.624 63.1994 196.51 62.5663C195.089 62.1413 193.72 61.5613 192.427 60.8366C191.988 60.582 191.628 60.3581 191.404 60.2044C191.28 60.1359 191.166 60.0501 191.066 59.9498C191.088 59.9147 191.571 60.2352 192.501 60.7049C193.808 61.3703 195.177 61.9055 196.589 62.3029C198.681 62.8823 200.85 63.1399 203.02 63.0667C204.3 63.0231 205.572 62.86 206.822 62.5794C208.139 62.2897 209.456 61.8639 210.773 61.4205C213.459 60.5161 216.12 59.6996 218.635 59.6996C221.151 59.6996 223.425 60.4766 224.781 61.8244C225.908 62.8372 226.632 64.2232 226.818 65.7271C226.898 66.2758 226.853 66.8356 226.686 67.3645Z" fill="#375A64"/>
<path d="M236.981 89.7536C236.981 89.7536 236.906 89.6658 236.805 89.477C236.704 89.2882 236.559 89.0029 236.393 88.6297C235.932 87.5718 235.579 86.4702 235.339 85.3416C234.983 83.6603 234.867 81.9367 234.997 80.2229C235.12 78.2781 235.725 76.2236 236.178 74.0769C236.63 71.9302 236.761 69.7966 236.178 67.9923C235.927 67.1411 235.494 66.3546 234.909 65.6876C234.389 65.1189 233.736 64.6889 233.008 64.4364C231.95 64.0384 230.778 64.0683 229.742 64.5198C229.378 64.722 229.037 64.9618 228.723 65.2354C228.961 64.876 229.288 64.5842 229.672 64.3881C230.199 64.1249 230.774 63.9706 231.362 63.9344C231.951 63.8982 232.54 63.9809 233.096 64.1774C233.879 64.4258 234.586 64.87 235.15 65.4681C235.777 66.1639 236.244 66.9879 236.52 67.8826C237.135 69.7659 237.025 71.9872 236.546 74.1559C236.068 76.3246 235.48 78.3571 235.343 80.258C235.2 81.9388 235.286 83.6312 235.598 85.2889C235.809 86.4098 236.117 87.5101 236.52 88.5771C236.819 89.3146 237.012 89.7272 236.981 89.7536Z" fill="#375A64"/>
<path d="M227.955 66.2978C227.939 66.1211 227.939 65.9433 227.955 65.7666C227.955 65.3803 227.986 64.8886 228.008 64.2476C228.097 62.3936 227.893 60.5371 227.402 58.747C227.04 57.5297 226.443 56.3948 225.646 55.4062C224.742 54.2682 223.5 53.4472 222.099 53.0619C220.529 52.7025 218.893 52.7692 217.358 53.2551C215.699 53.7813 214.109 54.5034 212.621 55.4062C211.111 56.3162 209.542 57.1229 207.924 57.8207C206.382 58.4219 204.748 58.7516 203.095 58.7953C201.598 58.832 200.104 58.6486 198.661 58.2509C197.41 57.8937 196.204 57.3959 195.065 56.7671C193.424 55.8399 191.977 54.6058 190.803 53.1322C190.476 52.7372 190.182 52.3157 189.925 51.8722C189.825 51.7251 189.738 51.5693 189.666 51.4069C189.788 51.5426 189.896 51.6896 189.99 51.8459C190.268 52.2665 190.573 52.6683 190.903 53.0488C192.104 54.4633 193.553 55.6462 195.179 56.5388C196.305 57.1408 197.495 57.6149 198.726 57.9524C200.142 58.3261 201.605 58.4932 203.068 58.4485C204.682 58.3966 206.275 58.0684 207.779 57.4783C209.378 56.7793 210.93 55.9756 212.423 55.0725C213.94 54.1564 215.561 53.4268 217.252 52.8995C218.851 52.3965 220.556 52.3358 222.187 52.7239C223.656 53.1359 224.955 54.0083 225.892 55.213C226.71 56.238 227.316 57.4154 227.674 58.6767C228.152 60.497 228.321 62.3846 228.175 64.2608C228.135 64.9237 228.082 65.4329 228.043 65.7797C228.031 65.955 228.002 66.1286 227.955 66.2978Z" fill="#375A64"/>
<path d="M242.201 137.28C242.201 137.28 273.769 147.377 275.872 152.855C277.452 156.96 294.042 206.751 297.62 239.207C299.078 252.425 289.279 264.23 276.039 265.446C254.664 267.408 223.627 269.959 223.627 268.203V241.292L263.839 235.357L248.935 191.602L242.201 137.28Z" fill="#1A2E35"/>
<path d="M201.681 262.763C205.803 263.835 223.631 263.835 223.631 263.835V242.692C223.631 242.692 215.874 239.378 213.736 237.451C211.598 235.524 205.513 224.153 205.513 224.153C205.513 224.153 201.764 226.283 202.713 230.673C203.714 235.317 205.632 235.879 205.786 237.727C205.786 237.749 205.944 238.206 205.948 238.223C206.365 240.8 203.902 243.052 203.902 243.052C204.056 243.017 201.861 241.735 201.198 241.67C197.44 241.23 192.989 243.917 192.989 245.414C192.989 245.414 192.861 249.466 192.989 250.063C193.116 250.66 195.021 251.468 195.021 251.468C195.021 251.468 194.42 254.168 195.021 255.366C195.623 256.565 197.62 257.469 197.62 257.469C197.62 257.469 199.354 262.162 201.681 262.763Z" fill="#C78976"/>
<path d="M206.005 259.374C206.005 259.51 204.052 259.66 201.707 259.142C199.363 258.624 197.642 257.684 197.708 257.561C197.774 257.438 199.543 258.128 201.821 258.619C204.1 259.111 206.005 259.208 206.005 259.374Z" fill="#BF654E"/>
<path d="M204.956 253.062C204.991 253.189 202.8 253.689 200.092 253.321C197.383 252.952 195.399 251.907 195.465 251.793C195.531 251.679 197.541 252.447 200.162 252.785C202.783 253.123 204.938 252.877 204.956 253.062Z" fill="#BF654E"/>
<path d="M204.341 234.887C204.398 234.847 205.088 235.765 205.777 237.499C205.96 237.973 206.107 238.46 206.216 238.956C206.376 239.549 206.376 240.173 206.216 240.765C205.805 242.098 204.89 243.218 203.665 243.886C203.055 244.249 202.391 244.511 201.699 244.663C201.061 244.782 200.415 244.848 199.767 244.861C198.551 244.905 197.462 244.861 196.553 244.909C194.727 244.909 193.634 245.181 193.612 245.111C193.59 245.041 194.688 244.637 196.536 244.527C197.453 244.457 198.546 244.44 199.745 244.369C200.364 244.343 200.981 244.269 201.589 244.15C202.224 244.002 202.832 243.758 203.393 243.425C204.501 242.826 205.341 241.828 205.742 240.633C205.898 240.118 205.918 239.57 205.799 239.044C205.709 238.564 205.582 238.092 205.421 237.631C204.837 235.914 204.271 234.926 204.341 234.887Z" fill="#BF654E"/>
<path d="M264.331 235.291C263.811 235.439 263.281 235.55 262.746 235.624L258.4 236.366C254.725 236.977 249.646 237.78 244.027 238.627C238.408 239.474 233.315 240.212 229.623 240.695C225.931 241.178 223.627 241.428 223.627 241.292L225.216 241.02L229.566 240.322L243.948 238.1C249.567 237.249 254.655 236.507 258.343 235.993L262.733 235.418C263.26 235.322 263.795 235.279 264.331 235.291Z" fill="#375A64"/>
<path d="M281.399 231.3C281.399 231.375 280.183 231.357 278.229 231.274C276.276 231.191 273.58 231.037 270.604 230.835C269.116 230.734 267.711 230.607 266.491 230.883C265.408 231.073 264.445 231.684 263.813 232.582C263.422 233.211 263.287 233.965 263.435 234.689C263.558 235.203 263.756 235.444 263.716 235.471C263.677 235.497 263.435 235.291 263.238 234.746C263.114 234.358 263.073 233.947 263.116 233.542C263.159 233.136 263.286 232.743 263.488 232.389C263.809 231.878 264.232 231.438 264.729 231.097C265.227 230.755 265.789 230.518 266.381 230.4C267.698 230.08 269.164 230.198 270.643 230.304C273.616 230.506 276.311 230.716 278.256 230.901C280.201 231.085 281.399 231.226 281.399 231.3Z" fill="#375A64"/>
<path d="M274.779 238.676C274.739 238.82 272.176 238.184 269.072 237.262C265.968 236.34 263.453 235.475 263.497 235.335C263.541 235.194 266.1 235.822 269.204 236.748C272.307 237.675 274.814 238.535 274.779 238.676Z" fill="#375A64"/>
<path d="M249.844 186.013C249.984 185.969 253.224 196.207 257.083 208.872C260.942 221.537 263.953 231.845 263.813 231.889C263.672 231.932 260.428 221.699 256.569 209.03C252.71 196.36 249.699 186.057 249.844 186.013Z" fill="#375A64"/>
<path d="M273.414 153.624C273.436 153.725 271.565 154.006 268.751 155.09C265.082 156.497 261.753 158.666 258.984 161.455C256.215 164.243 254.069 167.588 252.689 171.267C251.622 174.09 251.372 175.96 251.253 175.938C251.251 175.494 251.302 175.052 251.407 174.621C251.624 173.437 251.934 172.271 252.333 171.135C253.641 167.353 255.785 163.913 258.604 161.072C261.424 158.232 264.847 156.062 268.62 154.726C269.754 154.319 270.918 154.002 272.101 153.777C272.53 153.671 272.971 153.62 273.414 153.624Z" fill="#375A64"/>
<path d="M168.343 175.578C168.384 175.814 168.403 176.054 168.4 176.294C168.4 176.82 168.444 177.501 168.471 178.348C168.51 180.192 168.558 182.738 168.624 185.895C168.703 192.322 168.809 201.097 168.927 210.795C169.046 220.492 169.033 229.272 169.072 235.699C169.072 238.838 169.072 241.406 169.072 243.246C169.072 244.093 169.072 244.778 169.041 245.3C169.049 245.54 169.033 245.779 168.993 246.016C168.949 245.78 168.929 245.54 168.932 245.3C168.932 244.778 168.892 244.097 168.866 243.25C168.826 241.406 168.774 238.86 168.712 235.704C168.633 229.272 168.528 220.497 168.409 210.799C168.291 201.102 168.299 192.322 168.264 185.895C168.264 182.756 168.264 180.188 168.264 178.348C168.264 177.501 168.264 176.82 168.295 176.294C168.285 176.054 168.301 175.814 168.343 175.578Z" fill="#375A64"/>
<path d="M218.113 395.034C218.018 394.784 217.946 394.525 217.898 394.262L217.393 392.027C216.954 390.082 216.365 387.264 215.663 383.778C214.258 376.798 212.463 367.131 210.746 356.407C209.03 345.682 207.735 335.932 206.896 328.864C206.457 325.352 206.159 322.467 205.966 320.488L205.755 318.209C205.718 317.943 205.705 317.674 205.715 317.406C205.787 317.664 205.836 317.929 205.86 318.196C205.939 318.762 206.045 319.513 206.172 320.466C206.44 322.494 206.813 325.334 207.269 328.807C208.204 335.857 209.57 345.59 211.277 356.31C212.985 367.03 214.728 376.702 216.036 383.69C216.686 387.145 217.217 389.959 217.595 391.97C217.764 392.909 217.902 393.662 218.007 394.226C218.067 394.492 218.103 394.762 218.113 395.034Z" fill="#1A2E35"/>
<path d="M276.039 265.446C276.039 265.595 264.44 266.477 250.138 267.421C235.835 268.365 224.193 269.01 224.184 268.866C224.175 268.721 235.778 267.834 250.085 266.886C264.392 265.937 276.026 265.296 276.039 265.446Z" fill="#375A64"/>
<path d="M255.239 134.65L267.061 146.942C267.436 147.339 267.952 147.572 268.497 147.589C269.043 147.607 269.573 147.407 269.972 147.034L317.011 101.857C317.202 101.666 317.353 101.439 317.456 101.19C317.56 100.941 317.613 100.674 317.613 100.404C317.613 100.134 317.56 99.8666 317.456 99.6172C317.353 99.3679 317.202 99.1414 317.011 98.9506L305.193 86.6586C305.008 86.4614 304.786 86.3026 304.539 86.1912C304.293 86.0799 304.027 86.0182 303.757 86.0096C303.486 86.001 303.217 86.0458 302.964 86.1413C302.711 86.2369 302.479 86.3813 302.282 86.5664L255.265 131.74C254.877 132.123 254.656 132.644 254.651 133.189C254.647 133.735 254.858 134.26 255.239 134.65Z" fill="#F5F5F5"/>
<path d="M255.239 134.65C255.126 134.545 255.027 134.425 254.945 134.294C254.695 133.903 254.582 133.44 254.624 132.977C254.653 132.639 254.765 132.314 254.949 132.029C255.199 131.712 255.476 131.418 255.779 131.151L257.917 129.07L271.596 115.856C277.382 110.281 284.266 103.648 291.913 96.2859L297.787 90.6315L300.825 87.7122C301.347 87.2205 301.821 86.7288 302.392 86.2284C302.709 85.997 303.081 85.8533 303.471 85.8116C303.861 85.77 304.255 85.832 304.613 85.9913C304.963 86.1557 305.273 86.3938 305.522 86.6893L306.277 87.4751L307.796 89.0555L310.869 92.2558L317.156 98.8013C317.445 99.101 317.647 99.4743 317.739 99.8807C317.831 100.287 317.81 100.711 317.678 101.106C317.54 101.493 317.302 101.837 316.989 102.103L316.172 102.924L312.919 106.049L306.563 112.143L294.538 123.679L274.169 143.193L270.025 147.144C269.68 147.458 269.244 147.651 268.78 147.696C268.316 147.741 267.851 147.635 267.452 147.394C267.102 147.142 266.785 146.847 266.508 146.516L265.67 145.638L260.02 139.725L256.464 135.971C256.064 135.532 255.761 135.221 255.546 134.992C255.331 134.764 255.239 134.65 255.239 134.65C255.239 134.65 255.358 134.751 255.573 134.966L256.517 135.923L260.121 139.628L265.828 145.507L266.671 146.385C266.937 146.697 267.241 146.976 267.575 147.214C267.934 147.429 268.352 147.523 268.768 147.481C269.184 147.439 269.576 147.264 269.884 146.982L274.006 143.004L294.323 123.434L306.334 111.884L312.687 105.777L315.935 102.651L316.756 101.866C317.028 101.641 317.235 101.347 317.353 101.014C317.465 100.681 317.484 100.323 317.406 99.98C317.329 99.637 317.159 99.3219 316.914 99.0691L310.632 92.528L307.559 89.3233L306.04 87.7429L305.285 86.9527C305.068 86.6915 304.797 86.4804 304.49 86.3337C304.189 86.1995 303.857 86.147 303.529 86.1817C303.201 86.2164 302.887 86.3369 302.62 86.5313C302.116 86.9703 301.593 87.5059 301.084 87.9844L298.046 90.8993L292.159 96.5449L271.789 116.058L258.031 129.193L255.867 131.252C255.568 131.511 255.292 131.794 255.042 132.099C254.86 132.369 254.749 132.68 254.717 133.004C254.669 133.447 254.768 133.894 254.998 134.277C255.134 134.532 255.252 134.641 255.239 134.65Z" fill="#1A2E35"/>
<path d="M303.14 88.1931L294.598 96.5055L306.719 108.961L315.261 100.649L303.14 88.1931Z" fill="#FF4F5B"/>
<path d="M275.316 115.269L266.774 123.581L278.895 136.037L287.437 127.725L275.316 115.269Z" fill="#FF4F5B"/>
<path d="M284.602 106.231L276.06 114.544L288.181 127L296.723 118.687L284.602 106.231Z" fill="#FF4F5B"/>
<path d="M293.893 97.1847L285.352 105.497L297.473 117.953L306.015 109.64L293.893 97.1847Z" fill="#FF4F5B"/>
<g opacity="0.8">
<path opacity="0.8" d="M303.14 88.1931L294.598 96.5055L306.719 108.961L315.261 100.649L303.14 88.1931Z" fill="black"/>
</g>
<g opacity="0.5">
<path opacity="0.5" d="M275.316 115.269L266.774 123.581L278.896 136.037L287.437 127.725L275.316 115.269Z" fill="black"/>
</g>
<g opacity="0.6">
<path opacity="0.6" d="M284.602 106.231L276.06 114.544L288.181 127L296.723 118.687L284.602 106.231Z" fill="black"/>
</g>
<g opacity="0.7">
<path opacity="0.7" d="M293.893 97.1847L285.352 105.497L297.473 117.953L306.014 109.64L293.893 97.1847Z" fill="black"/>
</g>
<path d="M256.034 132.543L264.291 147.469C264.545 147.948 264.978 148.306 265.496 148.466C266.013 148.625 266.573 148.573 267.052 148.321L323.323 117.213C323.791 116.941 324.132 116.496 324.272 115.973C324.412 115.451 324.339 114.894 324.07 114.425L315.812 99.4994C315.558 99.0207 315.125 98.6623 314.608 98.5026C314.09 98.343 313.53 98.3951 313.051 98.6477L256.784 129.751C256.315 130.022 255.972 130.468 255.831 130.992C255.69 131.515 255.763 132.073 256.034 132.543Z" fill="#F5F5F5"/>
<path d="M256.033 132.543C255.95 132.415 255.885 132.276 255.84 132.13C255.699 131.703 255.699 131.241 255.84 130.813C255.946 130.495 256.132 130.209 256.38 129.984C256.696 129.741 257.034 129.529 257.39 129.351L259.967 127.911L276.399 118.758L300.798 105.224L307.853 101.317L311.497 99.2974L312.419 98.7882C312.727 98.5923 313.057 98.4318 313.402 98.3097C313.777 98.2086 314.172 98.2073 314.548 98.3059C314.924 98.4044 315.267 98.5994 315.544 98.8716C315.798 99.1489 316.008 99.4626 316.168 99.8023L316.69 100.742L317.739 102.643C318.445 103.91 319.154 105.19 319.868 106.484C321.297 109.068 322.744 111.686 324.21 114.338C324.366 114.604 324.464 114.899 324.498 115.205C324.533 115.511 324.504 115.821 324.412 116.115C324.32 116.409 324.168 116.681 323.966 116.913C323.763 117.145 323.515 117.333 323.236 117.463L322.252 118.008L318.35 120.163L310.72 124.382L296.325 132.337L271.873 145.809C270.117 146.762 268.492 147.684 266.89 148.531C266.459 148.697 265.987 148.721 265.542 148.598C265.097 148.476 264.703 148.214 264.418 147.851C263.936 147.118 263.597 146.398 263.202 145.708L259.313 138.614L256.868 134.123C256.595 133.614 256.385 133.223 256.24 132.947C256.095 132.67 256.033 132.543 256.033 132.543C256.033 132.543 256.121 132.67 256.271 132.929L256.929 134.088L259.449 138.544L263.4 145.612C263.791 146.288 264.159 147.047 264.607 147.719C264.863 148.038 265.213 148.267 265.607 148.375C266.001 148.483 266.42 148.464 266.802 148.321C268.356 147.486 270.016 146.543 271.75 145.586L296.149 132.051L310.562 124.066L318.192 119.847L322.09 117.692L323.073 117.147C323.31 117.039 323.522 116.883 323.694 116.688C323.867 116.493 323.997 116.264 324.075 116.015C324.154 115.767 324.18 115.505 324.151 115.246C324.122 114.988 324.039 114.738 323.907 114.513C322.444 111.862 320.997 109.244 319.566 106.659L317.445 102.814L316.396 100.913L315.874 99.9691C315.727 99.6606 315.536 99.3752 315.307 99.1218C315.075 98.8932 314.788 98.7289 314.473 98.6451C314.158 98.5612 313.827 98.5606 313.512 98.6433C313.193 98.7567 312.887 98.9039 312.599 99.0823L311.677 99.5915L308.029 101.607L300.97 105.505L276.535 118.969L260.046 128.026L257.456 129.439C257.102 129.606 256.765 129.808 256.451 130.041C256.212 130.255 256.03 130.525 255.919 130.826C255.773 131.242 255.757 131.693 255.875 132.117C255.963 132.407 256.047 132.538 256.033 132.543Z" fill="#1A2E35"/>
<path d="M312.693 101.361L302.297 107.19L310.798 122.35L321.194 116.52L312.693 101.361Z" fill="#FF4F5B"/>
<path d="M278.83 120.352L268.434 126.182L276.934 141.341L287.33 135.512L278.83 120.352Z" fill="#FF4F5B"/>
<path d="M290.13 114.02L279.734 119.849L288.234 135.009L298.63 129.18L290.13 114.02Z" fill="#FF4F5B"/>
<path d="M301.441 107.677L291.045 113.506L299.545 128.666L309.941 122.837L301.441 107.677Z" fill="#FF4F5B"/>
<g opacity="0.5">
<path opacity="0.5" d="M312.693 101.361L302.297 107.19L310.798 122.35L321.194 116.52L312.693 101.361Z" fill="black"/>
</g>
<g opacity="0.2">
<path opacity="0.2" d="M278.83 120.352L268.434 126.182L276.934 141.341L287.33 135.512L278.83 120.352Z" fill="black"/>
</g>
<g opacity="0.3">
<path opacity="0.3" d="M290.13 114.02L279.734 119.849L288.234 135.009L298.63 129.18L290.13 114.02Z" fill="black"/>
</g>
<g opacity="0.4">
<path opacity="0.4" d="M301.441 107.677L291.045 113.506L299.545 128.666L309.941 122.837L301.441 107.677Z" fill="black"/>
</g>
<path d="M253.961 132.407L257.605 149.089C257.665 149.357 257.778 149.611 257.936 149.836C258.095 150.061 258.296 150.252 258.528 150.4C258.76 150.547 259.019 150.647 259.291 150.694C259.562 150.741 259.839 150.734 260.107 150.674L326.098 136.244C326.641 136.127 327.115 135.8 327.417 135.334C327.719 134.868 327.824 134.302 327.709 133.759L324.065 117.077C324.005 116.809 323.893 116.555 323.734 116.33C323.576 116.105 323.375 115.913 323.143 115.766C322.91 115.619 322.651 115.519 322.38 115.472C322.109 115.425 321.831 115.432 321.563 115.492L255.577 129.926C255.034 130.041 254.559 130.367 254.256 130.832C253.953 131.297 253.847 131.864 253.961 132.407Z" fill="#F5F5F5"/>
<path d="M253.961 132.407C253.917 132.256 253.896 132.099 253.9 131.941C253.89 131.465 254.045 131 254.339 130.624C254.557 130.355 254.835 130.14 255.151 129.997C255.551 129.866 255.96 129.768 256.376 129.703L259.365 129.031L278.449 124.803L306.756 118.578L314.934 116.783L319.162 115.856L321.308 115.387C321.687 115.281 322.084 115.258 322.472 115.321C322.867 115.398 323.235 115.578 323.539 115.843C323.845 116.111 324.073 116.457 324.197 116.844C324.307 117.235 324.368 117.577 324.452 117.951C324.614 118.679 324.772 119.417 324.935 120.146C325.259 121.609 325.584 123.094 325.909 124.601C326.565 127.595 327.229 130.63 327.902 133.706C327.993 134.126 327.962 134.562 327.813 134.965C327.665 135.368 327.405 135.72 327.064 135.98C326.729 136.232 326.336 136.396 325.922 136.459L324.781 136.709L320.259 137.697L311.409 139.628L294.683 143.272L266.359 149.418L260.608 150.66C260.38 150.709 260.169 150.766 259.919 150.797C259.566 150.834 259.209 150.787 258.878 150.659C258.547 150.532 258.25 150.328 258.013 150.063C257.721 149.719 257.532 149.299 257.469 148.852C257.381 148.439 257.293 148.031 257.206 147.631C256.521 144.427 255.928 141.67 255.45 139.409C254.971 137.148 254.602 135.414 254.348 134.211C254.229 133.627 254.137 133.175 254.071 132.859C254.005 132.543 253.988 132.394 253.988 132.394C253.988 132.394 254.036 132.547 254.106 132.833C254.177 133.118 254.286 133.596 254.418 134.18C254.69 135.379 255.081 137.122 255.586 139.365L257.412 147.57C257.5 147.969 257.592 148.378 257.68 148.79C257.739 149.202 257.914 149.589 258.185 149.905C258.469 150.22 258.845 150.437 259.26 150.524C259.701 150.597 260.153 150.56 260.577 150.419L266.324 149.15L294.63 142.925L311.352 139.26L320.198 137.324L324.724 136.336L325.865 136.086C326.227 136.036 326.57 135.894 326.862 135.673C327.149 135.454 327.367 135.159 327.492 134.821C327.618 134.483 327.644 134.116 327.569 133.763L325.58 124.654C325.252 123.159 324.927 121.673 324.605 120.198C324.444 119.461 324.285 118.729 324.127 118.003C324.043 117.648 323.969 117.257 323.881 116.928C323.775 116.603 323.582 116.313 323.323 116.089C323.063 115.865 322.749 115.712 322.412 115.645C322.075 115.579 321.727 115.6 321.401 115.707L319.254 116.173L315.026 117.094L306.843 118.877L278.519 125.023L259.414 129.141L256.376 129.804C255.975 129.871 255.581 129.97 255.195 130.098C254.887 130.229 254.614 130.432 254.4 130.69C254.11 131.044 253.945 131.484 253.931 131.941C253.931 132.249 253.975 132.407 253.961 132.407Z" fill="#1A2E35"/>
<path d="M253.825 132.477C253.825 132.538 252.996 132.477 251.542 132.758C249.505 133.152 247.601 134.059 246.011 135.392C243.673 137.385 242.206 140.213 241.924 143.272C241.702 145.896 242.382 148.517 243.851 150.703C245.321 152.888 247.492 154.506 250.006 155.29C252.52 156.074 255.226 155.977 257.678 155.015C260.129 154.052 262.179 152.283 263.488 149.998C264.528 148.201 265.082 146.164 265.094 144.089C265.094 143.724 265.094 143.399 265.068 143.11C265.042 142.82 265.011 142.592 264.993 142.394C264.956 142.197 264.947 141.996 264.967 141.797C264.993 141.797 265.051 141.986 265.138 142.372C265.178 142.565 265.244 142.811 265.279 143.088C265.314 143.364 265.34 143.715 265.375 144.084C265.469 146.227 264.969 148.353 263.931 150.23C263.169 151.64 262.13 152.882 260.876 153.881C259.622 154.879 258.18 155.615 256.635 156.043C254.738 156.586 252.736 156.654 250.806 156.241C248.876 155.829 247.077 154.948 245.568 153.676C243.374 151.86 241.895 149.326 241.392 146.523C240.889 143.72 241.394 140.83 242.82 138.364C243.562 137.074 244.535 135.931 245.691 134.992C247.366 133.648 249.372 132.781 251.499 132.481C252.072 132.404 252.65 132.376 253.228 132.398C253.43 132.388 253.633 132.415 253.825 132.477Z" fill="#1A2E35"/>
<path d="M266.912 139.172C267.021 139.674 266.98 140.197 266.792 140.676C266.604 141.154 266.279 141.566 265.857 141.86C265.435 142.153 264.936 142.315 264.422 142.325C263.908 142.334 263.403 142.191 262.97 141.914C262.537 141.637 262.197 141.237 261.991 140.766C261.785 140.295 261.724 139.774 261.815 139.268C261.905 138.762 262.144 138.294 262.5 137.924C262.857 137.554 263.315 137.297 263.817 137.187C264.15 137.114 264.495 137.107 264.832 137.167C265.168 137.227 265.489 137.352 265.776 137.537C266.064 137.721 266.312 137.961 266.507 138.241C266.702 138.522 266.84 138.838 266.912 139.172Z" fill="#1A2E35"/>
<path d="M322.049 117.72L310.406 120.265L314.117 137.244L325.761 134.699L322.049 117.72Z" fill="#FF4F5B"/>
<path d="M309.446 120.466L297.802 123.011L301.514 139.99L313.158 137.445L309.446 120.466Z" fill="#FF4F5B"/>
<path d="M296.778 123.239L285.134 125.785L288.845 142.764L300.489 140.219L296.778 123.239Z" fill="#FF4F5B"/>
<path d="M284.122 126.01L272.478 128.555L276.189 145.534L287.833 142.989L284.122 126.01Z" fill="#FF4F5B"/>
<g opacity="0.8">
<path opacity="0.8" d="M284.122 126.01L272.478 128.555L276.189 145.534L287.833 142.989L284.122 126.01Z" fill="white"/>
</g>
<g opacity="0.6">
<path opacity="0.6" d="M296.778 123.239L285.134 125.785L288.845 142.764L300.489 140.219L296.778 123.239Z" fill="white"/>
</g>
<g opacity="0.4">
<path opacity="0.4" d="M309.446 120.466L297.802 123.011L301.514 139.99L313.158 137.445L309.446 120.466Z" fill="white"/>
</g>
<path d="M374.248 317.603L377.474 334.72L380.126 329.944L385.82 338.473L388.669 336.555L382.975 328.025L388.199 327.222L374.248 317.603Z" fill="#1A2E35"/>
</svg>
