<svg width="24" height="24" viewBox="0 0 24 24" fill="none" xmlns="http://www.w3.org/2000/svg">
<g clip-path="url(#clip0)">
<path d="M22.4616 4.3077H1.53848C0.688594 4.3077 0 3.6191 0 2.76926C0 1.91941 0.688594 1.23077 1.53848 1.23077H22.4616C23.3114 1.23077 24 1.91937 24 2.76926C24 3.61915 23.3114 4.3077 22.4616 4.3077Z" fill="#FF4F5B"/>
<path d="M13.8462 13.5385H1.53848C0.688594 13.5385 0 12.8499 0 12C0 11.1502 0.688594 10.4615 1.53848 10.4615H13.8462C14.696 10.4615 15.3847 11.1501 15.3847 12C15.3847 12.8499 14.696 13.5385 13.8462 13.5385Z" fill="#FF4F5B"/>
<path d="M22.4617 13.5384H20.0002C19.1503 13.5384 18.4617 12.8499 18.4617 12C18.4617 11.1501 19.1503 10.4615 20.0002 10.4615H22.4617C23.3115 10.4615 24.0001 11.1501 24.0001 12C24.0001 12.8499 23.3115 13.5384 22.4617 13.5384Z" fill="#FF4F5B" fill-opacity="0.4"/>
<path d="M22.4616 22.7692H1.53848C0.688594 22.7692 0 22.0806 0 21.2307C0 20.3809 0.688594 19.6923 1.53848 19.6923H22.4616C23.3114 19.6923 24 20.3809 24 21.2307C24 22.0806 23.3114 22.7692 22.4616 22.7692Z" fill="#FF4F5B"/>
</g>
<defs>
<clipPath id="clip0">
<rect width="24" height="24" fill="white"/>
</clipPath>
</defs>
</svg>
