<svg width="24" height="24" viewBox="0 0 24 24" fill="none" xmlns="http://www.w3.org/2000/svg">
<path d="M12 24C18.6274 24 24 18.6274 24 12C24 5.37258 18.6274 0 12 0C5.37258 0 0 5.37258 0 12C0 18.6274 5.37258 24 12 24Z" fill="#FF4F5B"/>
<path d="M16.302 9.91289C12.836 9.91289 12.8315 13.3658 12.8315 13.3836C12.8315 13.3836 12.594 16.8408 16.302 16.8408C16.302 16.8408 19.3943 17.0167 19.3943 14.4348H17.8064C17.8064 14.4348 17.859 15.4068 16.3548 15.4068C16.3548 15.4068 14.7669 15.5124 14.7669 13.8365H19.4471C19.4471 13.8365 19.9618 9.91289 16.302 9.91289ZM14.7492 12.6268C14.7492 12.6268 14.9428 11.2368 16.3373 11.2368C17.736 11.2368 17.714 12.6268 17.714 12.6268H14.7492ZM10.782 11.7384C10.782 11.7384 12.1587 11.6372 12.1587 10.0186C12.1587 8.40439 11.0327 7.61249 9.60311 7.61249H4.9007V16.6515H9.60268C9.60268 16.6515 12.4751 16.7397 12.4751 13.9817C12.4753 13.9817 12.5985 11.7384 10.782 11.7384ZM6.97264 9.21789H9.6029C9.6029 9.21789 10.2408 9.21789 10.2408 10.1591C10.2408 11.1003 9.86686 11.2368 9.44011 11.2368H6.97264V9.21789ZM9.47113 15.0461H6.97264V12.6268H9.6029C9.6029 12.6268 10.5576 12.618 10.5531 13.8715C10.5531 14.9274 9.84504 15.0374 9.47113 15.0461ZM14.3577 8.1447V9.25768H18.0879V8.1447H14.3577Z" fill="black"/>
</svg>
