<svg width="24" height="24" viewBox="0 0 24 24" fill="none" xmlns="http://www.w3.org/2000/svg">
<g clip-path="url(#clip0)">
<path d="M16.354 23.17C16.374 23.164 16.393 23.156 16.413 23.149C28.628 18.296 25.249 0 12 0C5.351 0 0 5.42 0 12C0 20.327 8.434 26.269 16.354 23.17ZM5.281 20.059C6.133 18.627 8.89 14.587 13.596 13.193C14.58 15.702 15.27 18.629 15.338 21.948C11.772 23.147 8.011 22.34 5.281 20.059ZM16.813 21.322C16.682 18.133 16.031 15.305 15.103 12.855C17.185 12.53 19.595 12.747 22.328 13.842C21.747 17.103 19.662 19.844 16.813 21.322ZM22.485 12.291C19.475 11.16 16.822 11.019 14.526 11.457C14.171 10.657 13.798 9.888 13.403 9.18C16.926 7.773 19.008 6.058 19.94 5.15C21.585 7.054 22.562 9.519 22.485 12.291ZM18.875 4.082C18.027 4.889 16.03 6.519 12.615 7.852C10.941 5.204 9.151 3.336 8.017 2.29C11.645 0.796 15.829 1.434 18.875 4.082ZM6.583 3.023C7.439 3.776 9.318 5.584 11.131 8.38C8.641 9.182 5.519 9.771 1.722 9.854C2.326 6.96 4.13 4.508 6.583 3.023ZM1.532 11.36C5.782 11.291 9.222 10.62 11.941 9.712C12.317 10.371 12.674 11.089 13.017 11.835C8.282 13.343 5.323 17.236 4.19 18.994C2.362 16.954 1.354 14.292 1.532 11.36Z" fill="#FF4F5B"/>
</g>
<defs>
<clipPath id="clip0">
<rect width="24" height="24" fill="white"/>
</clipPath>
</defs>
</svg>
