<svg width="24" height="24" viewBox="0 0 24 24" fill="none" xmlns="http://www.w3.org/2000/svg">
<g clip-path="url(#clip0)">
<path d="M12 23.999C18.6274 23.999 24 18.6264 24 11.999C24 5.37158 18.6274 -0.00100708 12 -0.00100708C5.37258 -0.00100708 0 5.37158 0 11.999C0 18.6264 5.37258 23.999 12 23.999Z" fill="#FF4F5B"/>
<path d="M19.1699 12.9654V17.9127H16.3016V13.2969C16.3016 12.138 15.8874 11.3465 14.8489 11.3465C14.0563 11.3465 13.5855 11.8794 13.3776 12.3953C13.3021 12.5797 13.2826 12.8358 13.2826 13.0944V17.9125H10.4141C10.4141 17.9125 10.4526 10.0949 10.4141 9.28568H13.2828V10.5082C13.2771 10.5178 13.2689 10.5272 13.2638 10.5364H13.2828V10.5082C13.664 9.92164 14.3438 9.08311 15.868 9.08311C17.7551 9.08311 19.1699 10.3161 19.1699 12.9654ZM7.41332 5.12724C6.43211 5.12724 5.79016 5.77133 5.79016 6.61756C5.79016 7.44583 6.4135 8.10853 7.37567 8.10853H7.39428C8.39475 8.10853 9.0168 7.44583 9.0168 6.61756C8.99776 5.77133 8.39475 5.12724 7.41332 5.12724ZM5.96065 17.9127H8.82813V9.28568H5.96065V17.9127Z" fill="black"/>
</g>
<defs>
<clipPath id="clip0">
<rect width="24" height="24" fill="white"/>
</clipPath>
</defs>
</svg>
