<svg width="24" height="24" viewBox="0 0 24 24" fill="none" xmlns="http://www.w3.org/2000/svg">
<path d="M12 24C18.6274 24 24 18.6274 24 12C24 5.37258 18.6274 0 12 0C5.37258 0 0 5.37258 0 12C0 18.6274 5.37258 24 12 24Z" fill="#FF4F5B"/>
<path d="M8.6665 13.9034L14.8693 15.221L15.1291 13.9676L8.92631 12.6404L8.6665 13.9034Z" fill="black"/>
<path d="M8.52905 15.5426H14.8687V16.8189H8.52905V15.5426Z" fill="black"/>
<path d="M9.47998 10.8986L15.2232 13.6142L15.7554 12.4478L10.0092 9.72502L9.47998 10.8986Z" fill="black"/>
<path d="M15.2247 13.6152L15.2237 13.6142L15.2227 13.6152H15.2247Z" fill="black"/>
<path d="M6 14.2575V19.4001H17.3953V14.2575H16.1275V18.1143H7.26781V14.2575H6Z" fill="black"/>
<path d="M11.0718 8.03781L15.9372 12.1616L16.7448 11.1716L11.8794 7.04781L11.0718 8.03781Z" fill="black"/>
<path d="M18.0001 10.1522L14.2188 5L13.2042 5.7716L16.9854 10.9238L18.0001 10.1522Z" fill="black"/>
</svg>
