<svg width="24" height="24" viewBox="0 0 24 24" fill="none" xmlns="http://www.w3.org/2000/svg">
<path d="M11.9989 0C5.3831 0 0 5.38324 0 12C0 18.6165 5.38303 24 11.9989 24C18.6156 24 23.9983 18.6165 23.9983 12C23.9983 5.38324 18.6156 0 11.9989 0ZM19.3228 15.9717C19.1514 16.1428 18.9268 16.2291 18.7024 16.2291C18.4776 16.2291 18.2531 16.1428 18.0816 15.9717L11.9989 9.88946L5.91688 15.9717C5.57398 16.3146 5.01757 16.3146 4.67468 15.9717C4.33157 15.6289 4.33157 15.0731 4.67468 14.7302L11.3782 8.02748C11.7215 7.68466 12.2762 7.68466 12.6189 8.02748L19.3223 14.7302C19.6657 15.0731 19.6657 15.6289 19.3228 15.9717Z" fill="#FF4F5B"/>
</svg>
